<?xml version="1.0" encoding="utf-8"?>

<!DOCTYPE svg PUBLIC "-//W3C//DTD SVG 1.1//EN" "http://www.w3.org/Graphics/SVG/1.1/DTD/svg11.dtd">
<svg version="1.1" id="Layer_1" xmlns="http://www.w3.org/2000/svg" xmlns:xlink="http://www.w3.org/1999/xlink" x="0px" y="0px"
	 viewBox="0 0 989.131 1641.366" enable-background="new 0 0 989.131 1641.366" xml:space="preserve">
<g>
	<polygon fill="#39B54A" points="469.078,35.001 469.078,63.636 493.877,49.318 493.877,20.683 	"/>
	<polygon fill="#39B54A" points="442.901,80.34 442.901,108.975 467.7,94.657 467.7,66.022 	"/>
	<polygon fill="#39B54A" points="469.767,64.829 494.566,79.147 519.365,64.829 494.566,50.511 	"/>
	<polygon fill="#39B54A" points="469.078,66.022 469.078,94.657 493.877,108.975 493.877,80.34 	"/>
	<polygon fill="#39B54A" points="495.255,80.34 495.255,108.975 520.054,94.657 520.054,66.022 	"/>
	<polygon fill="#39B54A" points="416.725,125.679 416.725,154.314 441.523,139.997 441.523,111.361 	"/>
	<polygon fill="#39B54A" points="443.59,110.168 468.389,124.486 493.188,110.168 468.389,95.851 	"/>
	<polygon fill="#39B54A" points="442.901,111.361 442.901,139.997 467.7,154.314 467.7,125.679 	"/>
	<polygon fill="#39B54A" points="469.078,125.679 469.078,154.314 493.877,139.997 493.877,111.361 	"/>
	<polygon fill="#39B54A" points="495.943,110.168 520.742,124.486 545.541,110.168 520.742,95.851 	"/>
	<polygon fill="#39B54A" points="495.255,111.361 495.255,139.997 520.054,154.314 520.054,125.679 	"/>
	<polygon fill="#39B54A" points="417.413,155.508 442.212,169.825 467.011,155.508 442.212,141.19 	"/>
	<polygon fill="#39B54A" points="416.725,156.701 416.725,185.336 441.523,199.654 441.523,171.018 	"/>
	<polygon fill="#39B54A" points="442.901,171.018 442.901,199.654 467.7,185.336 467.7,156.701 	"/>
	<polygon fill="#39B54A" points="469.767,155.508 494.566,169.825 519.365,155.508 494.566,141.19 	"/>
	<polygon fill="#39B54A" points="469.078,156.701 469.078,185.336 493.877,199.654 493.877,171.018 	"/>
	<polygon fill="#39B54A" points="495.255,171.018 495.255,199.654 520.054,185.336 520.054,156.701 	"/>
	<polygon fill="#39B54A" points="521.431,156.701 521.431,185.336 546.23,199.654 546.23,171.018 	"/>
	<polygon fill="#39B54A" points="391.237,200.847 416.036,215.165 440.835,200.847 416.036,186.529 	"/>
	<polygon fill="#39B54A" points="390.548,202.04 390.548,230.675 415.347,244.993 415.347,216.358 	"/>
	<polygon fill="#39B54A" points="416.725,216.358 416.725,244.993 441.523,230.675 441.523,202.04 	"/>
	<polygon fill="#39B54A" points="443.59,200.847 468.389,215.165 493.188,200.847 468.389,186.529 	"/>
	<polygon fill="#39B54A" points="442.901,202.04 442.901,230.675 467.7,244.993 467.7,216.358 	"/>
	<polygon fill="#39B54A" points="469.078,216.358 469.078,244.993 493.877,230.675 493.877,202.04 	"/>
	<polygon fill="#39B54A" points="495.943,200.847 520.742,215.165 545.541,200.847 520.742,186.529 	"/>
	<polygon fill="#39B54A" points="495.255,202.04 495.255,230.675 520.054,244.993 520.054,216.358 	"/>
	<polygon fill="#39B54A" points="521.431,216.358 521.431,244.993 546.23,230.675 546.23,202.04 	"/>
	<polygon fill="#39B54A" points="547.608,202.04 547.608,230.675 572.407,244.993 572.407,216.358 	"/>
	<polygon fill="#39B54A" points="390.548,261.697 390.548,290.332 415.347,276.015 415.347,247.379 	"/>
	<polygon fill="#39B54A" points="417.413,246.186 442.212,260.504 467.011,246.186 442.212,231.869 	"/>
	<polygon fill="#39B54A" points="416.725,247.379 416.725,276.015 441.523,290.332 441.523,261.697 	"/>
	<polygon fill="#39B54A" points="442.901,261.697 442.901,290.332 467.7,276.015 467.7,247.379 	"/>
	<polygon fill="#39B54A" points="469.767,246.186 494.566,260.504 519.365,246.186 494.566,231.869 	"/>
	<polygon fill="#39B54A" points="469.078,247.379 469.078,276.015 493.877,290.332 493.877,261.697 	"/>
	<polygon fill="#39B54A" points="495.255,261.697 495.255,290.332 520.054,276.015 520.054,247.379 	"/>
	<polygon fill="#39B54A" points="522.12,246.186 546.919,260.504 571.718,246.186 546.919,231.869 	"/>
	<polygon fill="#39B54A" points="521.431,247.379 521.431,276.015 546.23,290.332 546.23,261.697 	"/>
	<polygon fill="#39B54A" points="547.608,261.697 547.608,290.332 572.407,276.015 572.407,247.379 	"/>
	<polygon fill="#39B54A" points="364.371,307.036 364.371,335.672 389.17,321.354 389.17,292.719 	"/>
	<polygon fill="#39B54A" points="391.237,291.525 416.036,305.843 440.835,291.525 416.036,277.208 	"/>
	<polygon fill="#39B54A" points="390.548,292.719 390.548,321.354 415.347,335.672 415.347,307.036 	"/>
	<polygon fill="#39B54A" points="416.725,307.036 416.725,335.672 441.523,321.354 441.523,292.719 	"/>
	<polygon fill="#39B54A" points="443.59,291.525 468.389,305.843 493.188,291.525 468.389,277.208 	"/>
	<polygon fill="#39B54A" points="442.901,292.719 442.901,321.354 467.7,335.672 467.7,307.036 	"/>
	<polygon fill="#39B54A" points="469.078,307.036 469.078,335.672 493.877,321.354 493.877,292.719 	"/>
	<polygon fill="#39B54A" points="495.943,291.525 520.742,305.843 545.541,291.525 520.742,277.208 	"/>
	<polygon fill="#39B54A" points="495.255,292.719 495.255,321.354 520.054,335.672 520.054,307.036 	"/>
	<polygon fill="#39B54A" points="521.431,307.036 521.431,335.672 546.23,321.354 546.23,292.719 	"/>
	<polygon fill="#39B54A" points="548.297,291.525 573.096,305.843 597.895,291.525 573.096,277.208 	"/>
	<polygon fill="#39B54A" points="547.608,292.719 547.608,321.354 572.407,335.672 572.407,307.036 	"/>
	<polygon fill="#39B54A" points="573.785,307.036 573.785,335.672 598.583,321.354 598.583,292.719 	"/>
	<polygon fill="#39B54A" points="365.06,336.865 389.859,351.182 414.658,336.865 389.859,322.547 	"/>
	<polygon fill="#39B54A" points="364.371,338.058 364.371,366.693 389.17,381.011 389.17,352.376 	"/>
	<polygon fill="#39B54A" points="390.548,352.376 390.548,381.011 415.347,366.693 415.347,338.058 	"/>
	<polygon fill="#39B54A" points="417.413,336.865 442.212,351.182 467.011,336.865 442.212,322.547 	"/>
	<polygon fill="#39B54A" points="416.725,338.058 416.725,366.693 441.523,381.011 441.523,352.376 	"/>
	<polygon fill="#39B54A" points="442.901,352.376 442.901,381.011 467.7,366.693 467.7,338.058 	"/>
	<polygon fill="#39B54A" points="469.767,336.865 494.566,351.182 519.365,336.865 494.566,322.547 	"/>
	<polygon fill="#39B54A" points="469.078,338.058 469.078,366.693 493.877,381.011 493.877,352.376 	"/>
	<polygon fill="#39B54A" points="495.255,352.376 495.255,381.011 520.054,366.693 520.054,338.058 	"/>
	<polygon fill="#39B54A" points="522.12,336.865 546.919,351.182 571.718,336.865 546.919,322.547 	"/>
	<polygon fill="#39B54A" points="521.431,338.058 521.431,366.693 546.23,381.011 546.23,352.376 	"/>
	<polygon fill="#39B54A" points="547.608,352.376 547.608,381.011 572.407,366.693 572.407,338.058 	"/>
	<polygon fill="#39B54A" points="574.473,336.865 599.272,351.182 624.071,336.865 599.272,322.547 	"/>
	<polygon fill="#39B54A" points="573.785,338.058 573.785,366.693 598.583,381.011 598.583,352.376 	"/>
	<polygon fill="#39B54A" points="338.883,382.204 363.682,396.522 388.481,382.204 363.682,367.886 	"/>
	<polygon fill="#39B54A" points="338.195,383.397 338.195,412.033 362.993,426.35 362.993,397.715 	"/>
	<polygon fill="#39B54A" points="364.371,397.715 364.371,426.35 389.17,412.033 389.17,383.397 	"/>
	<polygon fill="#39B54A" points="391.237,382.204 416.036,396.522 440.835,382.204 416.036,367.886 	"/>
	<polygon fill="#39B54A" points="390.548,383.397 390.548,412.033 415.347,426.35 415.347,397.715 	"/>
	<polygon fill="#39B54A" points="416.725,397.715 416.725,426.35 441.523,412.033 441.523,383.397 	"/>
	<polygon fill="#39B54A" points="443.59,382.204 468.389,396.522 493.188,382.204 468.389,367.886 	"/>
	<polygon fill="#39B54A" points="442.901,383.397 442.901,412.033 467.7,426.35 467.7,397.715 	"/>
	<polygon fill="#39B54A" points="469.078,397.715 469.078,426.35 493.877,412.033 493.877,383.397 	"/>
	<polygon fill="#39B54A" points="495.943,382.204 520.742,396.522 545.541,382.204 520.742,367.886 	"/>
	<polygon fill="#39B54A" points="495.255,383.397 495.255,412.033 520.054,426.35 520.054,397.715 	"/>
	<polygon fill="#39B54A" points="521.431,397.715 521.431,426.35 546.23,412.033 546.23,383.397 	"/>
	<polygon fill="#39B54A" points="548.297,382.204 573.096,396.522 597.895,382.204 573.096,367.886 	"/>
	<polygon fill="#39B54A" points="547.608,383.397 547.608,412.033 572.407,426.35 572.407,397.715 	"/>
	<polygon fill="#39B54A" points="573.785,397.715 573.785,426.35 598.583,412.033 598.583,383.397 	"/>
	<polygon fill="#39B54A" points="599.961,383.397 599.961,412.033 624.76,426.35 624.76,397.715 	"/>
	<polygon fill="#39B54A" points="312.707,427.543 337.506,441.861 362.305,427.543 337.506,413.226 	"/>
	<polygon fill="#39B54A" points="338.195,443.054 338.195,471.69 362.993,457.372 362.993,428.737 	"/>
	<polygon fill="#39B54A" points="365.06,427.543 389.859,441.861 414.658,427.543 389.859,413.226 	"/>
	<polygon fill="#39B54A" points="364.371,428.737 364.371,457.372 389.17,471.69 389.17,443.054 	"/>
	<polygon fill="#39B54A" points="390.548,443.054 390.548,471.69 415.347,457.372 415.347,428.737 	"/>
	<polygon fill="#39B54A" points="417.413,427.543 442.212,441.861 467.011,427.543 442.212,413.226 	"/>
	<polygon fill="#39B54A" points="416.725,428.737 416.725,457.372 441.523,471.69 441.523,443.054 	"/>
	<polygon fill="#39B54A" points="442.901,443.054 442.901,471.69 467.7,457.372 467.7,428.737 	"/>
	<polygon fill="#39B54A" points="469.767,427.543 494.566,441.861 519.365,427.543 494.566,413.226 	"/>
	<polygon fill="#39B54A" points="469.078,428.737 469.078,457.372 493.877,471.69 493.877,443.054 	"/>
	<polygon fill="#39B54A" points="495.255,443.054 495.255,471.69 520.054,457.372 520.054,428.737 	"/>
	<polygon fill="#39B54A" points="522.12,427.543 546.919,441.861 571.718,427.543 546.919,413.226 	"/>
	<polygon fill="#39B54A" points="521.431,428.737 521.431,457.372 546.23,471.69 546.23,443.054 	"/>
	<polygon fill="#39B54A" points="547.608,443.054 547.608,471.69 572.407,457.372 572.407,428.737 	"/>
	<polygon fill="#39B54A" points="574.473,427.543 599.272,441.861 624.071,427.543 599.272,413.226 	"/>
	<polygon fill="#39B54A" points="573.785,428.737 573.785,457.372 598.583,471.69 598.583,443.054 	"/>
	<polygon fill="#39B54A" points="599.961,443.054 599.961,471.69 624.76,457.372 624.76,428.737 	"/>
	<polygon fill="#39B54A" points="626.138,428.737 626.138,457.372 650.937,471.69 650.937,443.054 	"/>
	<polygon fill="#39B54A" points="312.018,488.393 312.018,517.029 336.817,502.711 336.817,474.076 	"/>
	<polygon fill="#39B54A" points="338.883,472.883 363.682,487.2 388.481,472.883 363.682,458.565 	"/>
	<polygon fill="#39B54A" points="338.195,474.076 338.195,502.711 362.993,517.029 362.993,488.393 	"/>
	<polygon fill="#39B54A" points="364.371,488.393 364.371,517.029 389.17,502.711 389.17,474.076 	"/>
	<polygon fill="#39B54A" points="391.237,472.883 416.036,487.2 440.835,472.883 416.036,458.565 	"/>
	<polygon fill="#39B54A" points="390.548,474.076 390.548,502.711 415.347,517.029 415.347,488.393 	"/>
	<polygon fill="#39B54A" points="416.725,488.393 416.725,517.029 441.523,502.711 441.523,474.076 	"/>
	<polygon fill="#39B54A" points="443.59,472.883 468.389,487.2 493.188,472.883 468.389,458.565 	"/>
	<polygon fill="#39B54A" points="442.901,474.076 442.901,502.711 467.7,517.029 467.7,488.393 	"/>
	<polygon fill="#39B54A" points="469.078,488.393 469.078,517.029 493.877,502.711 493.877,474.076 	"/>
	<polygon fill="#39B54A" points="495.943,472.883 520.742,487.2 545.541,472.883 520.742,458.565 	"/>
	<polygon fill="#39B54A" points="495.255,474.076 495.255,502.711 520.054,517.029 520.054,488.393 	"/>
	<polygon fill="#39B54A" points="521.431,488.393 521.431,517.029 546.23,502.711 546.23,474.076 	"/>
	<polygon fill="#39B54A" points="548.297,472.883 573.096,487.2 597.895,472.883 573.096,458.565 	"/>
	<polygon fill="#39B54A" points="547.608,474.076 547.608,502.711 572.407,517.029 572.407,488.393 	"/>
	<polygon fill="#39B54A" points="573.785,488.393 573.785,517.029 598.583,502.711 598.583,474.076 	"/>
	<polygon fill="#39B54A" points="600.65,472.883 625.449,487.2 650.248,472.883 625.449,458.565 	"/>
	<polygon fill="#39B54A" points="599.961,474.076 599.961,502.711 624.76,517.029 624.76,488.393 	"/>
	<polygon fill="#39B54A" points="626.138,488.393 626.138,517.029 650.937,502.711 650.937,474.076 	"/>
	<polygon fill="#39B54A" points="285.841,533.733 285.841,562.368 310.64,548.05 310.64,519.415 	"/>
	<polygon fill="#39B54A" points="312.707,518.222 337.506,532.54 362.305,518.222 337.506,503.904 	"/>
	<polygon fill="#39B54A" points="312.018,519.415 312.018,548.05 336.817,562.368 336.817,533.733 	"/>
	<polygon fill="#39B54A" points="338.195,533.733 338.195,562.368 362.993,548.05 362.993,519.415 	"/>
	<polygon fill="#39B54A" points="365.06,518.222 389.859,532.54 414.658,518.222 389.859,503.904 	"/>
	<polygon fill="#39B54A" points="364.371,519.415 364.371,548.05 389.17,562.368 389.17,533.733 	"/>
	<polygon fill="#39B54A" points="390.548,533.733 390.548,562.368 415.347,548.05 415.347,519.415 	"/>
	<polygon fill="#39B54A" points="417.413,518.222 442.212,532.54 467.011,518.222 442.212,503.904 	"/>
	<polygon fill="#39B54A" points="416.725,519.415 416.725,548.05 441.523,562.368 441.523,533.733 	"/>
	<polygon fill="#39B54A" points="442.901,533.733 442.901,562.368 467.7,548.05 467.7,519.415 	"/>
	<polygon fill="#39B54A" points="469.767,518.222 494.566,532.54 519.365,518.222 494.566,503.904 	"/>
	<polygon fill="#39B54A" points="469.078,519.415 469.078,548.05 493.877,562.368 493.877,533.733 	"/>
	<polygon fill="#39B54A" points="495.255,533.733 495.255,562.368 520.054,548.05 520.054,519.415 	"/>
	<polygon fill="#39B54A" points="522.12,518.222 546.919,532.54 571.718,518.222 546.919,503.904 	"/>
	<polygon fill="#39B54A" points="521.431,519.415 521.431,548.05 546.23,562.368 546.23,533.733 	"/>
	<polygon fill="#39B54A" points="547.608,533.733 547.608,562.368 572.407,548.05 572.407,519.415 	"/>
	<polygon fill="#39B54A" points="574.473,518.222 599.272,532.54 624.071,518.222 599.272,503.904 	"/>
	<polygon fill="#39B54A" points="573.785,519.415 573.785,548.05 598.583,562.368 598.583,533.733 	"/>
	<polygon fill="#39B54A" points="599.961,533.733 599.961,562.368 624.76,548.05 624.76,519.415 	"/>
	<polygon fill="#39B54A" points="626.827,518.222 651.626,532.54 676.425,518.222 651.626,503.904 	"/>
	<polygon fill="#39B54A" points="626.138,519.415 626.138,548.05 650.937,562.368 650.937,533.733 	"/>
	<polygon fill="#39B54A" points="652.315,533.733 652.315,562.368 677.113,548.05 677.113,519.415 	"/>
	<polygon fill="#39B54A" points="286.53,563.561 311.329,577.879 336.128,563.561 311.329,549.244 	"/>
	<polygon fill="#39B54A" points="285.841,564.754 285.841,593.39 310.64,607.707 310.64,579.072 	"/>
	<polygon fill="#39B54A" points="312.018,579.072 312.018,607.707 336.817,593.39 336.817,564.754 	"/>
	<polygon fill="#39B54A" points="338.883,563.561 363.682,577.879 388.481,563.561 363.682,549.244 	"/>
	<polygon fill="#39B54A" points="338.195,564.754 338.195,593.39 362.993,607.707 362.993,579.072 	"/>
	<polygon fill="#39B54A" points="364.371,579.072 364.371,607.707 389.17,593.39 389.17,564.754 	"/>
	<polygon fill="#39B54A" points="391.237,563.561 416.036,577.879 440.835,563.561 416.036,549.244 	"/>
	<polygon fill="#39B54A" points="390.548,564.754 390.548,593.39 415.347,607.707 415.347,579.072 	"/>
	<polygon fill="#39B54A" points="416.725,579.072 416.725,607.707 441.523,593.39 441.523,564.754 	"/>
	<polygon fill="#39B54A" points="443.59,563.561 468.389,577.879 493.188,563.561 468.389,549.244 	"/>
	<polygon fill="#39B54A" points="442.901,564.754 442.901,593.39 467.7,607.707 467.7,579.072 	"/>
	<polygon fill="#39B54A" points="469.078,579.072 469.078,607.707 493.877,593.39 493.877,564.754 	"/>
	<polygon fill="#39B54A" points="495.943,563.561 520.742,577.879 545.541,563.561 520.742,549.244 	"/>
	<polygon fill="#39B54A" points="495.255,564.754 495.255,593.39 520.054,607.707 520.054,579.072 	"/>
	<polygon fill="#39B54A" points="521.431,579.072 521.431,607.707 546.23,593.39 546.23,564.754 	"/>
	<polygon fill="#39B54A" points="548.297,563.561 573.096,577.879 597.895,563.561 573.096,549.244 	"/>
	<polygon fill="#39B54A" points="547.608,564.754 547.608,593.39 572.407,607.707 572.407,579.072 	"/>
	<polygon fill="#39B54A" points="573.785,579.072 573.785,607.707 598.583,593.39 598.583,564.754 	"/>
	<polygon fill="#39B54A" points="600.65,563.561 625.449,577.879 650.248,563.561 625.449,549.244 	"/>
	<polygon fill="#39B54A" points="599.961,564.754 599.961,593.39 624.76,607.707 624.76,579.072 	"/>
	<polygon fill="#39B54A" points="626.138,579.072 626.138,607.707 650.937,593.39 650.937,564.754 	"/>
	<polygon fill="#39B54A" points="653.003,563.561 677.802,577.879 702.601,563.561 677.802,549.244 	"/>
	<polygon fill="#39B54A" points="652.315,564.754 652.315,593.39 677.113,607.707 677.113,579.072 	"/>
	<polygon fill="#39B54A" points="260.353,608.901 285.152,623.218 309.951,608.901 285.152,594.583 	"/>
	<polygon fill="#39B54A" points="259.665,610.094 259.665,638.729 284.464,653.047 284.464,624.411 	"/>
	<polygon fill="#39B54A" points="285.841,624.411 285.841,653.047 310.64,638.729 310.64,610.094 	"/>
	<polygon fill="#39B54A" points="312.707,608.901 337.506,623.218 362.305,608.901 337.506,594.583 	"/>
	<polygon fill="#39B54A" points="312.018,610.094 312.018,638.729 336.817,653.047 336.817,624.411 	"/>
	<polygon fill="#39B54A" points="338.195,624.411 338.195,653.047 362.993,638.729 362.993,610.094 	"/>
	<polygon fill="#39B54A" points="365.06,608.901 389.859,623.218 414.658,608.901 389.859,594.583 	"/>
	<polygon fill="#39B54A" points="364.371,610.094 364.371,638.729 389.17,653.047 389.17,624.411 	"/>
	<polygon fill="#39B54A" points="390.548,624.411 390.548,653.047 415.347,638.729 415.347,610.094 	"/>
	<polygon fill="#39B54A" points="417.413,608.901 442.212,623.218 467.011,608.901 442.212,594.583 	"/>
	<polygon fill="#39B54A" points="416.725,610.094 416.725,638.729 441.523,653.047 441.523,624.411 	"/>
	<polygon fill="#39B54A" points="442.901,624.411 442.901,653.047 467.7,638.729 467.7,610.094 	"/>
	<polygon fill="#39B54A" points="469.767,608.901 494.566,623.218 519.365,608.901 494.566,594.583 	"/>
	<polygon fill="#39B54A" points="469.078,610.094 469.078,638.729 493.877,653.047 493.877,624.411 	"/>
	<polygon fill="#39B54A" points="495.255,624.411 495.255,653.047 520.054,638.729 520.054,610.094 	"/>
	<polygon fill="#39B54A" points="522.12,608.901 546.919,623.218 571.718,608.901 546.919,594.583 	"/>
	<polygon fill="#39B54A" points="521.431,610.094 521.431,638.729 546.23,653.047 546.23,624.411 	"/>
	<polygon fill="#39B54A" points="547.608,624.411 547.608,653.047 572.407,638.729 572.407,610.094 	"/>
	<polygon fill="#39B54A" points="574.473,608.901 599.272,623.218 624.071,608.901 599.272,594.583 	"/>
	<polygon fill="#39B54A" points="573.785,610.094 573.785,638.729 598.583,653.047 598.583,624.411 	"/>
	<polygon fill="#39B54A" points="599.961,624.411 599.961,653.047 624.76,638.729 624.76,610.094 	"/>
	<polygon fill="#39B54A" points="626.827,608.901 651.626,623.218 676.425,608.901 651.626,594.583 	"/>
	<polygon fill="#39B54A" points="626.138,610.094 626.138,638.729 650.937,653.047 650.937,624.411 	"/>
	<polygon fill="#39B54A" points="652.315,624.411 652.315,653.047 677.113,638.729 677.113,610.094 	"/>
	<polygon fill="#39B54A" points="678.491,610.094 678.491,638.729 703.29,653.047 703.29,624.411 	"/>
	<polygon fill="#39B54A" points="259.665,669.751 259.665,698.386 284.464,684.068 284.464,655.433 	"/>
	<polygon fill="#39B54A" points="286.53,654.24 311.329,668.558 336.128,654.24 311.329,639.922 	"/>
	<polygon fill="#39B54A" points="285.841,655.433 285.841,684.068 310.64,698.386 310.64,669.751 	"/>
	<polygon fill="#39B54A" points="312.018,669.751 312.018,698.386 336.817,684.068 336.817,655.433 	"/>
	<polygon fill="#39B54A" points="338.883,654.24 363.682,668.558 388.481,654.24 363.682,639.922 	"/>
	<polygon fill="#39B54A" points="338.195,655.433 338.195,684.068 362.993,698.386 362.993,669.751 	"/>
	<polygon fill="#39B54A" points="364.371,669.751 364.371,698.386 389.17,684.068 389.17,655.433 	"/>
	<polygon fill="#39B54A" points="391.237,654.24 416.036,668.558 440.835,654.24 416.036,639.922 	"/>
	<polygon fill="#39B54A" points="390.548,655.433 390.548,684.068 415.347,698.386 415.347,669.751 	"/>
	<polygon fill="#39B54A" points="416.725,669.751 416.725,698.386 441.523,684.068 441.523,655.433 	"/>
	<polygon fill="#39B54A" points="443.59,654.24 468.389,668.558 493.188,654.24 468.389,639.922 	"/>
	<polygon fill="#39B54A" points="442.901,655.433 442.901,684.068 467.7,698.386 467.7,669.751 	"/>
	<polygon fill="#39B54A" points="469.078,669.751 469.078,698.386 493.877,684.068 493.877,655.433 	"/>
	<polygon fill="#39B54A" points="495.943,654.24 520.742,668.558 545.541,654.24 520.742,639.922 	"/>
	<polygon fill="#39B54A" points="495.255,655.433 495.255,684.068 520.054,698.386 520.054,669.751 	"/>
	<polygon fill="#39B54A" points="521.431,669.751 521.431,698.386 546.23,684.068 546.23,655.433 	"/>
	<polygon fill="#39B54A" points="548.297,654.24 573.096,668.558 597.895,654.24 573.096,639.922 	"/>
	<polygon fill="#39B54A" points="547.608,655.433 547.608,684.068 572.407,698.386 572.407,669.751 	"/>
	<polygon fill="#39B54A" points="573.785,669.751 573.785,698.386 598.583,684.068 598.583,655.433 	"/>
	<polygon fill="#39B54A" points="600.65,654.24 625.449,668.558 650.248,654.24 625.449,639.922 	"/>
	<polygon fill="#39B54A" points="599.961,655.433 599.961,684.068 624.76,698.386 624.76,669.751 	"/>
	<polygon fill="#39B54A" points="626.138,669.751 626.138,698.386 650.937,684.068 650.937,655.433 	"/>
	<polygon fill="#39B54A" points="653.003,654.24 677.802,668.558 702.601,654.24 677.802,639.922 	"/>
	<polygon fill="#39B54A" points="652.315,655.433 652.315,684.068 677.113,698.386 677.113,669.751 	"/>
	<polygon fill="#39B54A" points="678.491,669.751 678.491,698.386 703.29,684.068 703.29,655.433 	"/>
	<polygon fill="#39B54A" points="704.668,655.433 704.668,684.068 729.467,698.386 729.467,669.751 	"/>
	<polygon fill="#39B54A" points="233.488,715.09 233.488,743.725 258.287,729.408 258.287,700.772 	"/>
	<polygon fill="#39B54A" points="260.353,699.579 285.152,713.897 309.951,699.579 285.152,685.261 	"/>
	<polygon fill="#39B54A" points="259.665,700.772 259.665,729.408 284.464,743.725 284.464,715.09 	"/>
	<polygon fill="#39B54A" points="285.841,715.09 285.841,743.725 310.64,729.408 310.64,700.772 	"/>
	<polygon fill="#39B54A" points="312.707,699.579 337.506,713.897 362.305,699.579 337.506,685.261 	"/>
	<polygon fill="#39B54A" points="312.018,700.772 312.018,729.408 336.817,743.725 336.817,715.09 	"/>
	<polygon fill="#39B54A" points="338.195,715.09 338.195,743.725 362.993,729.408 362.993,700.772 	"/>
	<polygon fill="#39B54A" points="365.06,699.579 389.859,713.897 414.658,699.579 389.859,685.261 	"/>
	<polygon fill="#39B54A" points="364.371,700.772 364.371,729.408 389.17,743.725 389.17,715.09 	"/>
	<polygon fill="#39B54A" points="390.548,715.09 390.548,743.725 415.347,729.408 415.347,700.772 	"/>
	<polygon fill="#39B54A" points="417.413,699.579 442.212,713.897 467.011,699.579 442.212,685.261 	"/>
	<polygon fill="#39B54A" points="416.725,700.772 416.725,729.408 441.523,743.725 441.523,715.09 	"/>
	<polygon fill="#39B54A" points="442.901,715.09 442.901,743.725 467.7,729.408 467.7,700.772 	"/>
	<polygon fill="#39B54A" points="469.767,699.579 494.566,713.897 519.365,699.579 494.566,685.261 	"/>
	<polygon fill="#39B54A" points="469.078,700.772 469.078,729.408 493.877,743.725 493.877,715.09 	"/>
	<polygon fill="#39B54A" points="495.255,715.09 495.255,743.725 520.054,729.408 520.054,700.772 	"/>
	<polygon fill="#39B54A" points="522.12,699.579 546.919,713.897 571.718,699.579 546.919,685.261 	"/>
	<polygon fill="#39B54A" points="521.431,700.772 521.431,729.408 546.23,743.725 546.23,715.09 	"/>
	<polygon fill="#39B54A" points="547.608,715.09 547.608,743.725 572.407,729.408 572.407,700.772 	"/>
	<polygon fill="#39B54A" points="574.473,699.579 599.272,713.897 624.071,699.579 599.272,685.261 	"/>
	<polygon fill="#39B54A" points="573.785,700.772 573.785,729.408 598.583,743.725 598.583,715.09 	"/>
	<polygon fill="#39B54A" points="599.961,715.09 599.961,743.725 624.76,729.408 624.76,700.772 	"/>
	<polygon fill="#39B54A" points="626.827,699.579 651.626,713.897 676.425,699.579 651.626,685.261 	"/>
	<polygon fill="#39B54A" points="626.138,700.772 626.138,729.408 650.937,743.725 650.937,715.09 	"/>
	<polygon fill="#39B54A" points="652.315,715.09 652.315,743.725 677.113,729.408 677.113,700.772 	"/>
	<polygon fill="#39B54A" points="679.18,699.579 703.979,713.897 728.778,699.579 703.979,685.261 	"/>
	<polygon fill="#39B54A" points="678.491,700.772 678.491,729.408 703.29,743.725 703.29,715.09 	"/>
	<polygon fill="#39B54A" points="704.668,715.09 704.668,743.725 729.467,729.408 729.467,700.772 	"/>
	<polygon fill="#39B54A" points="234.177,744.918 258.976,759.236 283.775,744.918 258.976,730.601 	"/>
	<polygon fill="#39B54A" points="233.488,746.112 233.488,774.747 258.287,789.065 258.287,760.429 	"/>
	<polygon fill="#39B54A" points="259.665,760.429 259.665,789.065 284.464,774.747 284.464,746.112 	"/>
	<polygon fill="#39B54A" points="286.53,744.918 311.329,759.236 336.128,744.918 311.329,730.601 	"/>
	<polygon fill="#39B54A" points="285.841,746.112 285.841,774.747 310.64,789.065 310.64,760.429 	"/>
	<polygon fill="#39B54A" points="312.018,760.429 312.018,789.065 336.817,774.747 336.817,746.112 	"/>
	<polygon fill="#39B54A" points="338.883,744.918 363.682,759.236 388.481,744.918 363.682,730.601 	"/>
	<polygon fill="#39B54A" points="338.195,746.112 338.195,774.747 362.993,789.065 362.993,760.429 	"/>
	<polygon fill="#39B54A" points="364.371,760.429 364.371,789.065 389.17,774.747 389.17,746.112 	"/>
	<polygon fill="#39B54A" points="391.237,744.918 416.036,759.236 440.835,744.918 416.036,730.601 	"/>
	<polygon fill="#39B54A" points="390.548,746.112 390.548,774.747 415.347,789.065 415.347,760.429 	"/>
	<polygon fill="#39B54A" points="416.725,760.429 416.725,789.065 441.523,774.747 441.523,746.112 	"/>
	<polygon fill="#39B54A" points="443.59,744.918 468.389,759.236 493.188,744.918 468.389,730.601 	"/>
	<polygon fill="#39B54A" points="442.901,746.112 442.901,774.747 467.7,789.065 467.7,760.429 	"/>
	<polygon fill="#39B54A" points="469.078,760.429 469.078,789.065 493.877,774.747 493.877,746.112 	"/>
	<polygon fill="#39B54A" points="495.943,744.918 520.742,759.236 545.541,744.918 520.742,730.601 	"/>
	<polygon fill="#39B54A" points="495.255,746.112 495.255,774.747 520.054,789.065 520.054,760.429 	"/>
	<polygon fill="#39B54A" points="521.431,760.429 521.431,789.065 546.23,774.747 546.23,746.112 	"/>
	<polygon fill="#39B54A" points="548.297,744.918 573.096,759.236 597.895,744.918 573.096,730.601 	"/>
	<polygon fill="#39B54A" points="547.608,746.112 547.608,774.747 572.407,789.065 572.407,760.429 	"/>
	<polygon fill="#39B54A" points="573.785,760.429 573.785,789.065 598.583,774.747 598.583,746.112 	"/>
	<polygon fill="#39B54A" points="600.65,744.918 625.449,759.236 650.248,744.918 625.449,730.601 	"/>
	<polygon fill="#39B54A" points="599.961,746.112 599.961,774.747 624.76,789.065 624.76,760.429 	"/>
	<polygon fill="#39B54A" points="626.138,760.429 626.138,789.065 650.937,774.747 650.937,746.112 	"/>
	<polygon fill="#39B54A" points="653.003,744.918 677.802,759.236 702.601,744.918 677.802,730.601 	"/>
	<polygon fill="#39B54A" points="652.315,746.112 652.315,774.747 677.113,789.065 677.113,760.429 	"/>
	<polygon fill="#39B54A" points="678.491,760.429 678.491,789.065 703.29,774.747 703.29,746.112 	"/>
	<polygon fill="#39B54A" points="705.357,744.918 730.156,759.236 754.955,744.918 730.156,730.601 	"/>
	<polygon fill="#39B54A" points="704.668,746.112 704.668,774.747 729.467,789.065 729.467,760.429 	"/>
	<polygon fill="#39B54A" points="730.844,760.429 730.844,789.065 755.643,774.747 755.643,746.112 	"/>
	<polygon fill="#39B54A" points="208,790.258 232.799,804.575 257.598,790.258 232.799,775.94 	"/>
	<polygon fill="#39B54A" points="207.311,791.451 207.311,820.086 232.11,834.404 232.11,805.769 	"/>
	<polygon fill="#39B54A" points="233.488,805.769 233.488,834.404 258.287,820.086 258.287,791.451 	"/>
	<polygon fill="#39B54A" points="260.353,790.258 285.152,804.575 309.951,790.258 285.152,775.94 	"/>
	<polygon fill="#39B54A" points="259.665,791.451 259.665,820.086 284.464,834.404 284.464,805.769 	"/>
	<polygon fill="#39B54A" points="285.841,805.769 285.841,834.404 310.64,820.086 310.64,791.451 	"/>
	<polygon fill="#39B54A" points="312.707,790.258 337.506,804.575 362.305,790.258 337.506,775.94 	"/>
	<polygon fill="#39B54A" points="312.018,791.451 312.018,820.086 336.817,834.404 336.817,805.769 	"/>
	<polygon fill="#39B54A" points="338.195,805.769 338.195,834.404 362.993,820.086 362.993,791.451 	"/>
	<polygon fill="#39B54A" points="365.06,790.258 389.859,804.575 414.658,790.258 389.859,775.94 	"/>
	<polygon fill="#39B54A" points="364.371,791.451 364.371,820.086 389.17,834.404 389.17,805.769 	"/>
	<polygon fill="#39B54A" points="390.548,805.769 390.548,834.404 415.347,820.086 415.347,791.451 	"/>
	<polygon fill="#39B54A" points="417.413,790.258 442.212,804.575 467.011,790.258 442.212,775.94 	"/>
	<polygon fill="#39B54A" points="416.725,791.451 416.725,820.086 441.523,834.404 441.523,805.769 	"/>
	<polygon fill="#39B54A" points="442.901,805.769 442.901,834.404 467.7,820.086 467.7,791.451 	"/>
	<polygon fill="#39B54A" points="469.767,790.258 494.566,804.575 519.365,790.258 494.566,775.94 	"/>
	<polygon fill="#39B54A" points="469.078,791.451 469.078,820.086 493.877,834.404 493.877,805.769 	"/>
	<polygon fill="#39B54A" points="495.255,805.769 495.255,834.404 520.054,820.086 520.054,791.451 	"/>
	<polygon fill="#39B54A" points="522.12,790.258 546.919,804.575 571.718,790.258 546.919,775.94 	"/>
	<polygon fill="#39B54A" points="521.431,791.451 521.431,820.086 546.23,834.404 546.23,805.769 	"/>
	<polygon fill="#39B54A" points="547.608,805.769 547.608,834.404 572.407,820.086 572.407,791.451 	"/>
	<polygon fill="#39B54A" points="574.473,790.258 599.272,804.575 624.071,790.258 599.272,775.94 	"/>
	<polygon fill="#39B54A" points="573.785,791.451 573.785,820.086 598.583,834.404 598.583,805.769 	"/>
	<polygon fill="#39B54A" points="599.961,805.769 599.961,834.404 624.76,820.086 624.76,791.451 	"/>
	<polygon fill="#39B54A" points="626.827,790.258 651.626,804.575 676.425,790.258 651.626,775.94 	"/>
	<polygon fill="#39B54A" points="626.138,791.451 626.138,820.086 650.937,834.404 650.937,805.769 	"/>
	<polygon fill="#39B54A" points="652.315,805.769 652.315,834.404 677.113,820.086 677.113,791.451 	"/>
	<polygon fill="#39B54A" points="679.18,790.258 703.979,804.575 728.778,790.258 703.979,775.94 	"/>
	<polygon fill="#39B54A" points="678.491,791.451 678.491,820.086 703.29,834.404 703.29,805.769 	"/>
	<polygon fill="#39B54A" points="704.668,805.769 704.668,834.404 729.467,820.086 729.467,791.451 	"/>
	<polygon fill="#39B54A" points="731.533,790.258 756.332,804.575 781.131,790.258 756.332,775.94 	"/>
	<polygon fill="#39B54A" points="730.844,791.451 730.844,820.086 755.643,834.404 755.643,805.769 	"/>
	<polygon fill="#39B54A" points="757.021,805.769 757.021,834.404 781.82,820.086 781.82,791.451 	"/>
	<polygon fill="#39B54A" points="181.823,835.597 206.622,849.915 231.421,835.597 206.622,821.279 	"/>
	<polygon fill="#39B54A" points="207.311,851.108 207.311,879.743 232.11,865.426 232.11,836.79 	"/>
	<polygon fill="#39B54A" points="234.177,835.597 258.976,849.915 283.775,835.597 258.976,821.279 	"/>
	<polygon fill="#39B54A" points="233.488,836.79 233.488,865.426 258.287,879.743 258.287,851.108 	"/>
	<polygon fill="#39B54A" points="259.665,851.108 259.665,879.743 284.464,865.426 284.464,836.79 	"/>
	<polygon fill="#39B54A" points="286.53,835.597 311.329,849.915 336.128,835.597 311.329,821.279 	"/>
	<polygon fill="#39B54A" points="285.841,836.79 285.841,865.426 310.64,879.743 310.64,851.108 	"/>
	<polygon fill="#39B54A" points="312.018,851.108 312.018,879.743 336.817,865.426 336.817,836.79 	"/>
	<polygon fill="#39B54A" points="338.883,835.597 363.682,849.915 388.481,835.597 363.682,821.279 	"/>
	<polygon fill="#39B54A" points="338.195,836.79 338.195,865.426 362.993,879.743 362.993,851.108 	"/>
	<polygon fill="#39B54A" points="364.371,851.108 364.371,879.743 389.17,865.426 389.17,836.79 	"/>
	<polygon fill="#39B54A" points="391.237,835.597 416.036,849.915 440.835,835.597 416.036,821.279 	"/>
	<polygon fill="#39B54A" points="390.548,836.79 390.548,865.426 415.347,879.743 415.347,851.108 	"/>
	<polygon fill="#39B54A" points="416.725,851.108 416.725,879.743 441.523,865.426 441.523,836.79 	"/>
	<polygon fill="#39B54A" points="443.59,835.597 468.389,849.915 493.188,835.597 468.389,821.279 	"/>
	<polygon fill="#39B54A" points="442.901,836.79 442.901,865.426 467.7,879.743 467.7,851.108 	"/>
	<polygon fill="#39B54A" points="469.078,851.108 469.078,879.743 493.877,865.426 493.877,836.79 	"/>
	<polygon fill="#39B54A" points="495.943,835.597 520.742,849.915 545.541,835.597 520.742,821.279 	"/>
	<polygon fill="#39B54A" points="495.255,836.79 495.255,865.426 520.054,879.743 520.054,851.108 	"/>
	<polygon fill="#39B54A" points="521.431,851.108 521.431,879.743 546.23,865.426 546.23,836.79 	"/>
	<polygon fill="#39B54A" points="548.297,835.597 573.096,849.915 597.895,835.597 573.096,821.279 	"/>
	<polygon fill="#39B54A" points="547.608,836.79 547.608,865.426 572.407,879.743 572.407,851.108 	"/>
	<polygon fill="#39B54A" points="573.785,851.108 573.785,879.743 598.583,865.426 598.583,836.79 	"/>
	<polygon fill="#39B54A" points="600.65,835.597 625.449,849.915 650.248,835.597 625.449,821.279 	"/>
	<polygon fill="#39B54A" points="599.961,836.79 599.961,865.426 624.76,879.743 624.76,851.108 	"/>
	<polygon fill="#39B54A" points="626.138,851.108 626.138,879.743 650.937,865.426 650.937,836.79 	"/>
	<polygon fill="#39B54A" points="653.003,835.597 677.802,849.915 702.601,835.597 677.802,821.279 	"/>
	<polygon fill="#39B54A" points="652.315,836.79 652.315,865.426 677.113,879.743 677.113,851.108 	"/>
	<polygon fill="#39B54A" points="678.491,851.108 678.491,879.743 703.29,865.426 703.29,836.79 	"/>
	<polygon fill="#39B54A" points="705.357,835.597 730.156,849.915 754.955,835.597 730.156,821.279 	"/>
	<polygon fill="#39B54A" points="704.668,836.79 704.668,865.426 729.467,879.743 729.467,851.108 	"/>
	<polygon fill="#39B54A" points="730.844,851.108 730.844,879.743 755.643,865.426 755.643,836.79 	"/>
	<polygon fill="#39B54A" points="757.021,836.79 757.021,865.426 781.82,879.743 781.82,851.108 	"/>
	<polygon fill="#39B54A" points="181.135,896.447 181.135,925.083 205.934,910.765 205.934,882.13 	"/>
	<polygon fill="#39B54A" points="208,880.936 232.799,895.254 257.598,880.936 232.799,866.619 	"/>
	<polygon fill="#39B54A" points="207.311,882.13 207.311,910.765 232.11,925.083 232.11,896.447 	"/>
	<polygon fill="#39B54A" points="233.488,896.447 233.488,925.083 258.287,910.765 258.287,882.13 	"/>
	<polygon fill="#39B54A" points="260.353,880.936 285.152,895.254 309.951,880.936 285.152,866.619 	"/>
	<polygon fill="#39B54A" points="259.665,882.13 259.665,910.765 284.464,925.083 284.464,896.447 	"/>
	<polygon fill="#39B54A" points="285.841,896.447 285.841,925.083 310.64,910.765 310.64,882.13 	"/>
	<polygon fill="#39B54A" points="312.707,880.936 337.506,895.254 362.305,880.936 337.506,866.619 	"/>
	<polygon fill="#39B54A" points="312.018,882.13 312.018,910.765 336.817,925.083 336.817,896.447 	"/>
	<polygon fill="#39B54A" points="338.195,896.447 338.195,925.083 362.993,910.765 362.993,882.13 	"/>
	<polygon fill="#39B54A" points="365.06,880.936 389.859,895.254 414.658,880.936 389.859,866.619 	"/>
	<polygon fill="#39B54A" points="364.371,882.13 364.371,910.765 389.17,925.083 389.17,896.447 	"/>
	<polygon fill="#39B54A" points="390.548,896.447 390.548,925.083 415.347,910.765 415.347,882.13 	"/>
	<polygon fill="#39B54A" points="417.413,880.936 442.212,895.254 467.011,880.936 442.212,866.619 	"/>
	<polygon fill="#39B54A" points="416.725,882.13 416.725,910.765 441.523,925.083 441.523,896.447 	"/>
	<polygon fill="#39B54A" points="442.901,896.447 442.901,925.083 467.7,910.765 467.7,882.13 	"/>
	<polygon fill="#39B54A" points="469.767,880.936 494.566,895.254 519.365,880.936 494.566,866.619 	"/>
	<polygon fill="#39B54A" points="469.078,882.13 469.078,910.765 493.877,925.083 493.877,896.447 	"/>
	<polygon fill="#39B54A" points="495.255,896.447 495.255,925.083 520.054,910.765 520.054,882.13 	"/>
	<polygon fill="#39B54A" points="522.12,880.936 546.919,895.254 571.718,880.936 546.919,866.619 	"/>
	<polygon fill="#39B54A" points="521.431,882.13 521.431,910.765 546.23,925.083 546.23,896.447 	"/>
	<polygon fill="#39B54A" points="547.608,896.447 547.608,925.083 572.407,910.765 572.407,882.13 	"/>
	<polygon fill="#39B54A" points="574.473,880.936 599.272,895.254 624.071,880.936 599.272,866.619 	"/>
	<polygon fill="#39B54A" points="573.785,882.13 573.785,910.765 598.583,925.083 598.583,896.447 	"/>
	<polygon fill="#39B54A" points="599.961,896.447 599.961,925.083 624.76,910.765 624.76,882.13 	"/>
	<polygon fill="#39B54A" points="626.827,880.936 651.626,895.254 676.425,880.936 651.626,866.619 	"/>
	<polygon fill="#39B54A" points="626.138,882.13 626.138,910.765 650.937,925.083 650.937,896.447 	"/>
	<polygon fill="#39B54A" points="652.315,896.447 652.315,925.083 677.113,910.765 677.113,882.13 	"/>
	<polygon fill="#39B54A" points="679.18,880.936 703.979,895.254 728.778,880.936 703.979,866.619 	"/>
	<polygon fill="#39B54A" points="678.491,882.13 678.491,910.765 703.29,925.083 703.29,896.447 	"/>
	<polygon fill="#39B54A" points="704.668,896.447 704.668,925.083 729.467,910.765 729.467,882.13 	"/>
	<polygon fill="#39B54A" points="731.533,880.936 756.332,895.254 781.131,880.936 756.332,866.619 	"/>
	<polygon fill="#39B54A" points="730.844,882.13 730.844,910.765 755.643,925.083 755.643,896.447 	"/>
	<polygon fill="#39B54A" points="757.021,896.447 757.021,925.083 781.82,910.765 781.82,882.13 	"/>
	<polygon fill="#39B54A" points="783.198,882.13 783.198,910.765 807.997,925.083 807.997,896.447 	"/>
	<polygon fill="#39B54A" points="154.958,941.786 154.958,970.422 179.757,956.104 179.757,927.469 	"/>
	<polygon fill="#39B54A" points="181.823,926.276 206.622,940.593 231.421,926.276 206.622,911.958 	"/>
	<polygon fill="#39B54A" points="181.135,927.469 181.135,956.104 205.934,970.422 205.934,941.786 	"/>
	<polygon fill="#39B54A" points="207.311,941.786 207.311,970.422 232.11,956.104 232.11,927.469 	"/>
	<polygon fill="#39B54A" points="234.177,926.276 258.976,940.593 283.775,926.276 258.976,911.958 	"/>
	<polygon fill="#39B54A" points="233.488,927.469 233.488,956.104 258.287,970.422 258.287,941.786 	"/>
	<polygon fill="#39B54A" points="259.665,941.786 259.665,970.422 284.464,956.104 284.464,927.469 	"/>
	<polygon fill="#39B54A" points="286.53,926.276 311.329,940.593 336.128,926.276 311.329,911.958 	"/>
	<polygon fill="#39B54A" points="285.841,927.469 285.841,956.104 310.64,970.422 310.64,941.786 	"/>
	<polygon fill="#39B54A" points="312.018,941.786 312.018,970.422 336.817,956.104 336.817,927.469 	"/>
	<polygon fill="#39B54A" points="338.883,926.276 363.682,940.593 388.481,926.276 363.682,911.958 	"/>
	<polygon fill="#39B54A" points="338.195,927.469 338.195,956.104 362.993,970.422 362.993,941.786 	"/>
	<polygon fill="#39B54A" points="364.371,941.786 364.371,970.422 389.17,956.104 389.17,927.469 	"/>
	<polygon fill="#39B54A" points="391.237,926.276 416.036,940.593 440.835,926.276 416.036,911.958 	"/>
	<polygon fill="#39B54A" points="390.548,927.469 390.548,956.104 415.347,970.422 415.347,941.786 	"/>
	<polygon fill="#39B54A" points="416.725,941.786 416.725,970.422 441.523,956.104 441.523,927.469 	"/>
	<polygon fill="#39B54A" points="443.59,926.276 468.389,940.593 493.188,926.276 468.389,911.958 	"/>
	<polygon fill="#39B54A" points="442.901,927.469 442.901,956.104 467.7,970.422 467.7,941.786 	"/>
	<polygon fill="#39B54A" points="469.078,941.786 469.078,970.422 493.877,956.104 493.877,927.469 	"/>
	<polygon fill="#39B54A" points="495.943,926.276 520.742,940.593 545.541,926.276 520.742,911.958 	"/>
	<polygon fill="#39B54A" points="495.255,927.469 495.255,956.104 520.054,970.422 520.054,941.786 	"/>
	<polygon fill="#39B54A" points="521.431,941.786 521.431,970.422 546.23,956.104 546.23,927.469 	"/>
	<polygon fill="#39B54A" points="548.297,926.276 573.096,940.593 597.895,926.276 573.096,911.958 	"/>
	<polygon fill="#39B54A" points="547.608,927.469 547.608,956.104 572.407,970.422 572.407,941.786 	"/>
	<polygon fill="#39B54A" points="573.785,941.786 573.785,970.422 598.583,956.104 598.583,927.469 	"/>
	<polygon fill="#39B54A" points="600.65,926.276 625.449,940.593 650.248,926.276 625.449,911.958 	"/>
	<polygon fill="#39B54A" points="599.961,927.469 599.961,956.104 624.76,970.422 624.76,941.786 	"/>
	<polygon fill="#39B54A" points="626.138,941.786 626.138,970.422 650.937,956.104 650.937,927.469 	"/>
	<polygon fill="#39B54A" points="653.003,926.276 677.802,940.593 702.601,926.276 677.802,911.958 	"/>
	<polygon fill="#39B54A" points="652.315,927.469 652.315,956.104 677.113,970.422 677.113,941.786 	"/>
	<polygon fill="#39B54A" points="678.491,941.786 678.491,970.422 703.29,956.104 703.29,927.469 	"/>
	<polygon fill="#39B54A" points="705.357,926.276 730.156,940.593 754.955,926.276 730.156,911.958 	"/>
	<polygon fill="#39B54A" points="704.668,927.469 704.668,956.104 729.467,970.422 729.467,941.786 	"/>
	<polygon fill="#39B54A" points="730.844,941.786 730.844,970.422 755.643,956.104 755.643,927.469 	"/>
	<polygon fill="#39B54A" points="757.71,926.276 782.509,940.593 807.308,926.276 782.509,911.958 	"/>
	<polygon fill="#39B54A" points="757.021,927.469 757.021,956.104 781.82,970.422 781.82,941.786 	"/>
	<polygon fill="#39B54A" points="783.198,941.786 783.198,970.422 807.997,956.104 807.997,927.469 	"/>
	<polygon fill="#39B54A" points="155.647,971.615 180.446,985.933 205.245,971.615 180.446,957.297 	"/>
	<polygon fill="#39B54A" points="154.958,972.808 154.958,1001.443 179.757,1015.761 179.757,987.126 	"/>
	<polygon fill="#39B54A" points="181.135,987.126 181.135,1015.761 205.934,1001.443 205.934,972.808 	"/>
	<polygon fill="#39B54A" points="208,971.615 232.799,985.933 257.598,971.615 232.799,957.297 	"/>
	<polygon fill="#39B54A" points="207.311,972.808 207.311,1001.443 232.11,1015.761 232.11,987.126 	"/>
	<polygon fill="#39B54A" points="233.488,987.126 233.488,1015.761 258.287,1001.443 258.287,972.808 	"/>
	<polygon fill="#39B54A" points="260.353,971.615 285.152,985.933 309.951,971.615 285.152,957.297 	"/>
	<polygon fill="#39B54A" points="259.665,972.808 259.665,1001.443 284.464,1015.761 284.464,987.126 	"/>
	<polygon fill="#39B54A" points="285.841,987.126 285.841,1015.761 310.64,1001.443 310.64,972.808 	"/>
	<polygon fill="#39B54A" points="312.707,971.615 337.506,985.933 362.305,971.615 337.506,957.297 	"/>
	<polygon fill="#39B54A" points="312.018,972.808 312.018,1001.443 336.817,1015.761 336.817,987.126 	"/>
	<polygon fill="#39B54A" points="338.195,987.126 338.195,1015.761 362.993,1001.443 362.993,972.808 	"/>
	<polygon fill="#39B54A" points="365.06,971.615 389.859,985.933 414.658,971.615 389.859,957.297 	"/>
	<polygon fill="#39B54A" points="364.371,972.808 364.371,1001.443 389.17,1015.761 389.17,987.126 	"/>
	<polygon fill="#39B54A" points="390.548,987.126 390.548,1015.761 415.347,1001.443 415.347,972.808 	"/>
	<polygon fill="#39B54A" points="417.413,971.615 442.212,985.933 467.011,971.615 442.212,957.297 	"/>
	<polygon fill="#39B54A" points="416.725,972.808 416.725,1001.443 441.523,1015.761 441.523,987.126 	"/>
	<polygon fill="#39B54A" points="442.901,987.126 442.901,1015.761 467.7,1001.443 467.7,972.808 	"/>
	<polygon fill="#39B54A" points="469.767,971.615 494.566,985.933 519.365,971.615 494.566,957.297 	"/>
	<polygon fill="#39B54A" points="469.078,972.808 469.078,1001.443 493.877,1015.761 493.877,987.126 	"/>
	<polygon fill="#39B54A" points="495.255,987.126 495.255,1015.761 520.054,1001.443 520.054,972.808 	"/>
	<polygon fill="#39B54A" points="522.12,971.615 546.919,985.933 571.718,971.615 546.919,957.297 	"/>
	<polygon fill="#39B54A" points="521.431,972.808 521.431,1001.443 546.23,1015.761 546.23,987.126 	"/>
	<polygon fill="#39B54A" points="547.608,987.126 547.608,1015.761 572.407,1001.443 572.407,972.808 	"/>
	<polygon fill="#39B54A" points="574.473,971.615 599.272,985.933 624.071,971.615 599.272,957.297 	"/>
	<polygon fill="#39B54A" points="573.785,972.808 573.785,1001.443 598.583,1015.761 598.583,987.126 	"/>
	<polygon fill="#39B54A" points="599.961,987.126 599.961,1015.761 624.76,1001.443 624.76,972.808 	"/>
	<polygon fill="#39B54A" points="626.827,971.615 651.626,985.933 676.425,971.615 651.626,957.297 	"/>
	<polygon fill="#39B54A" points="626.138,972.808 626.138,1001.443 650.937,1015.761 650.937,987.126 	"/>
	<polygon fill="#39B54A" points="652.315,987.126 652.315,1015.761 677.113,1001.443 677.113,972.808 	"/>
	<polygon fill="#39B54A" points="679.18,971.615 703.979,985.933 728.778,971.615 703.979,957.297 	"/>
	<polygon fill="#39B54A" points="678.491,972.808 678.491,1001.443 703.29,1015.761 703.29,987.126 	"/>
	<polygon fill="#39B54A" points="704.668,987.126 704.668,1015.761 729.467,1001.443 729.467,972.808 	"/>
	<polygon fill="#39B54A" points="731.533,971.615 756.332,985.933 781.131,971.615 756.332,957.297 	"/>
	<polygon fill="#39B54A" points="730.844,972.808 730.844,1001.443 755.643,1015.761 755.643,987.126 	"/>
	<polygon fill="#39B54A" points="757.021,987.126 757.021,1015.761 781.82,1001.443 781.82,972.808 	"/>
	<polygon fill="#39B54A" points="783.887,971.615 808.686,985.933 833.485,971.615 808.686,957.297 	"/>
	<polygon fill="#39B54A" points="783.198,972.808 783.198,1001.443 807.997,1015.761 807.997,987.126 	"/>
	<polygon fill="#39B54A" points="809.374,987.126 809.374,1015.761 834.173,1001.443 834.173,972.808 	"/>
	<polygon fill="#39B54A" points="129.47,1016.954 154.269,1031.272 179.068,1016.954 154.269,1002.637 	"/>
	<polygon fill="#39B54A" points="128.781,1018.147 128.781,1046.783 153.58,1061.1 153.58,1032.465 	"/>
	<polygon fill="#39B54A" points="154.958,1032.465 154.958,1061.1 179.757,1046.783 179.757,1018.147 	"/>
	<polygon fill="#39B54A" points="181.823,1016.954 206.622,1031.272 231.421,1016.954 206.622,1002.637 	"/>
	<polygon fill="#39B54A" points="181.135,1018.147 181.135,1046.783 205.934,1061.1 205.934,1032.465 	"/>
	<polygon fill="#39B54A" points="207.311,1032.465 207.311,1061.1 232.11,1046.783 232.11,1018.147 	"/>
	<polygon fill="#39B54A" points="234.177,1016.954 258.976,1031.272 283.775,1016.954 258.976,1002.637 	"/>
	<polygon fill="#39B54A" points="233.488,1018.147 233.488,1046.783 258.287,1061.1 258.287,1032.465 	"/>
	<polygon fill="#39B54A" points="259.665,1032.465 259.665,1061.1 284.464,1046.783 284.464,1018.147 	"/>
	<polygon fill="#39B54A" points="286.53,1016.954 311.329,1031.272 336.128,1016.954 311.329,1002.637 	"/>
	<polygon fill="#39B54A" points="285.841,1018.147 285.841,1046.783 310.64,1061.1 310.64,1032.465 	"/>
	<polygon fill="#39B54A" points="312.018,1032.465 312.018,1061.1 336.817,1046.783 336.817,1018.147 	"/>
	<polygon fill="#39B54A" points="338.883,1016.954 363.682,1031.272 388.481,1016.954 363.682,1002.637 	"/>
	<polygon fill="#39B54A" points="338.195,1018.147 338.195,1046.783 362.993,1061.1 362.993,1032.465 	"/>
	<polygon fill="#39B54A" points="364.371,1032.465 364.371,1061.1 389.17,1046.783 389.17,1018.147 	"/>
	<polygon fill="#39B54A" points="391.237,1016.954 416.036,1031.272 440.835,1016.954 416.036,1002.637 	"/>
	<polygon fill="#39B54A" points="390.548,1018.147 390.548,1046.783 415.347,1061.1 415.347,1032.465 	"/>
	<polygon fill="#39B54A" points="416.725,1032.465 416.725,1061.1 441.523,1046.783 441.523,1018.147 	"/>
	<polygon fill="#39B54A" points="443.59,1016.954 468.389,1031.272 493.188,1016.954 468.389,1002.637 	"/>
	<polygon fill="#39B54A" points="442.901,1018.147 442.901,1046.783 467.7,1061.1 467.7,1032.465 	"/>
	<polygon fill="#39B54A" points="469.078,1032.465 469.078,1061.1 493.877,1046.783 493.877,1018.147 	"/>
	<polygon fill="#39B54A" points="495.943,1016.954 520.742,1031.272 545.541,1016.954 520.742,1002.637 	"/>
	<polygon fill="#39B54A" points="495.255,1018.147 495.255,1046.783 520.054,1061.1 520.054,1032.465 	"/>
	<polygon fill="#39B54A" points="521.431,1032.465 521.431,1061.1 546.23,1046.783 546.23,1018.147 	"/>
	<polygon fill="#39B54A" points="548.297,1016.954 573.096,1031.272 597.895,1016.954 573.096,1002.637 	"/>
	<polygon fill="#39B54A" points="547.608,1018.147 547.608,1046.783 572.407,1061.1 572.407,1032.465 	"/>
	<polygon fill="#39B54A" points="573.785,1032.465 573.785,1061.1 598.583,1046.783 598.583,1018.147 	"/>
	<polygon fill="#39B54A" points="600.65,1016.954 625.449,1031.272 650.248,1016.954 625.449,1002.637 	"/>
	<polygon fill="#39B54A" points="599.961,1018.147 599.961,1046.783 624.76,1061.1 624.76,1032.465 	"/>
	<polygon fill="#39B54A" points="626.138,1032.465 626.138,1061.1 650.937,1046.783 650.937,1018.147 	"/>
	<polygon fill="#39B54A" points="653.003,1016.954 677.802,1031.272 702.601,1016.954 677.802,1002.637 	"/>
	<polygon fill="#39B54A" points="652.315,1018.147 652.315,1046.783 677.113,1061.1 677.113,1032.465 	"/>
	<polygon fill="#39B54A" points="678.491,1032.465 678.491,1061.1 703.29,1046.783 703.29,1018.147 	"/>
	<polygon fill="#39B54A" points="705.357,1016.954 730.156,1031.272 754.955,1016.954 730.156,1002.637 	"/>
	<polygon fill="#39B54A" points="704.668,1018.147 704.668,1046.783 729.467,1061.1 729.467,1032.465 	"/>
	<polygon fill="#39B54A" points="730.844,1032.465 730.844,1061.1 755.643,1046.783 755.643,1018.147 	"/>
	<polygon fill="#39B54A" points="757.71,1016.954 782.509,1031.272 807.308,1016.954 782.509,1002.637 	"/>
	<polygon fill="#39B54A" points="757.021,1018.147 757.021,1046.783 781.82,1061.1 781.82,1032.465 	"/>
	<polygon fill="#39B54A" points="783.198,1032.465 783.198,1061.1 807.997,1046.783 807.997,1018.147 	"/>
	<polygon fill="#39B54A" points="810.063,1016.954 834.862,1031.272 859.661,1016.954 834.862,1002.637 	"/>
	<polygon fill="#39B54A" points="809.374,1018.147 809.374,1046.783 834.173,1061.1 834.173,1032.465 	"/>
	<polygon fill="#39B54A" points="103.294,1062.294 128.092,1076.611 152.891,1062.294 128.092,1047.976 	"/>
	<polygon fill="#39B54A" points="128.781,1077.804 128.781,1106.44 153.58,1092.122 153.58,1063.487 	"/>
	<polygon fill="#39B54A" points="155.647,1062.294 180.446,1076.611 205.245,1062.294 180.446,1047.976 	"/>
	<polygon fill="#39B54A" points="154.958,1063.487 154.958,1092.122 179.757,1106.44 179.757,1077.804 	"/>
	<polygon fill="#39B54A" points="181.135,1077.804 181.135,1106.44 205.934,1092.122 205.934,1063.487 	"/>
	<polygon fill="#39B54A" points="208,1062.294 232.799,1076.611 257.598,1062.294 232.799,1047.976 	"/>
	<polygon fill="#39B54A" points="207.311,1063.487 207.311,1092.122 232.11,1106.44 232.11,1077.804 	"/>
	<polygon fill="#39B54A" points="233.488,1077.804 233.488,1106.44 258.287,1092.122 258.287,1063.487 	"/>
	<polygon fill="#39B54A" points="260.353,1062.294 285.152,1076.611 309.951,1062.294 285.152,1047.976 	"/>
	<polygon fill="#39B54A" points="259.665,1063.487 259.665,1092.122 284.464,1106.44 284.464,1077.804 	"/>
	<polygon fill="#39B54A" points="285.841,1077.804 285.841,1106.44 310.64,1092.122 310.64,1063.487 	"/>
	<polygon fill="#39B54A" points="312.707,1062.294 337.506,1076.611 362.305,1062.294 337.506,1047.976 	"/>
	<polygon fill="#39B54A" points="312.018,1063.487 312.018,1092.122 336.817,1106.44 336.817,1077.804 	"/>
	<polygon fill="#39B54A" points="338.195,1077.804 338.195,1106.44 362.993,1092.122 362.993,1063.487 	"/>
	<polygon fill="#39B54A" points="365.06,1062.294 389.859,1076.611 414.658,1062.294 389.859,1047.976 	"/>
	<polygon fill="#39B54A" points="364.371,1063.487 364.371,1092.122 389.17,1106.44 389.17,1077.804 	"/>
	<polygon fill="#39B54A" points="390.548,1077.804 390.548,1106.44 415.347,1092.122 415.347,1063.487 	"/>
	<polygon fill="#39B54A" points="417.413,1062.294 442.212,1076.611 467.011,1062.294 442.212,1047.976 	"/>
	<polygon fill="#39B54A" points="416.725,1063.487 416.725,1092.122 441.523,1106.44 441.523,1077.804 	"/>
	<polygon fill="#39B54A" points="442.901,1077.804 442.901,1106.44 467.7,1092.122 467.7,1063.487 	"/>
	<polygon fill="#39B54A" points="469.767,1062.294 494.566,1076.611 519.365,1062.294 494.566,1047.976 	"/>
	<polygon fill="#39B54A" points="469.078,1063.487 469.078,1092.122 493.877,1106.44 493.877,1077.804 	"/>
	<polygon fill="#39B54A" points="495.255,1077.804 495.255,1106.44 520.054,1092.122 520.054,1063.487 	"/>
	<polygon fill="#39B54A" points="522.12,1062.294 546.919,1076.611 571.718,1062.294 546.919,1047.976 	"/>
	<polygon fill="#39B54A" points="521.431,1063.487 521.431,1092.122 546.23,1106.44 546.23,1077.804 	"/>
	<polygon fill="#39B54A" points="547.608,1077.804 547.608,1106.44 572.407,1092.122 572.407,1063.487 	"/>
	<polygon fill="#39B54A" points="574.473,1062.294 599.272,1076.611 624.071,1062.294 599.272,1047.976 	"/>
	<polygon fill="#39B54A" points="573.785,1063.487 573.785,1092.122 598.583,1106.44 598.583,1077.804 	"/>
	<polygon fill="#39B54A" points="599.961,1077.804 599.961,1106.44 624.76,1092.122 624.76,1063.487 	"/>
	<polygon fill="#39B54A" points="626.827,1062.294 651.626,1076.611 676.425,1062.294 651.626,1047.976 	"/>
	<polygon fill="#39B54A" points="626.138,1063.487 626.138,1092.122 650.937,1106.44 650.937,1077.804 	"/>
	<polygon fill="#39B54A" points="652.315,1077.804 652.315,1106.44 677.113,1092.122 677.113,1063.487 	"/>
	<polygon fill="#39B54A" points="679.18,1062.294 703.979,1076.611 728.778,1062.294 703.979,1047.976 	"/>
	<polygon fill="#39B54A" points="678.491,1063.487 678.491,1092.122 703.29,1106.44 703.29,1077.804 	"/>
	<polygon fill="#39B54A" points="704.668,1077.804 704.668,1106.44 729.467,1092.122 729.467,1063.487 	"/>
	<polygon fill="#39B54A" points="731.533,1062.294 756.332,1076.611 781.131,1062.294 756.332,1047.976 	"/>
	<polygon fill="#39B54A" points="730.844,1063.487 730.844,1092.122 755.643,1106.44 755.643,1077.804 	"/>
	<polygon fill="#39B54A" points="757.021,1077.804 757.021,1106.44 781.82,1092.122 781.82,1063.487 	"/>
	<polygon fill="#39B54A" points="783.887,1062.294 808.686,1076.611 833.485,1062.294 808.686,1047.976 	"/>
	<polygon fill="#39B54A" points="783.198,1063.487 783.198,1092.122 807.997,1106.44 807.997,1077.804 	"/>
	<polygon fill="#39B54A" points="809.374,1077.804 809.374,1106.44 834.173,1092.122 834.173,1063.487 	"/>
	<polygon fill="#39B54A" points="835.551,1063.487 835.551,1092.122 860.35,1106.44 860.35,1077.804 	"/>
	<polygon fill="#39B54A" points="102.605,1123.144 102.605,1151.779 127.404,1137.461 127.404,1108.826 	"/>
	<polygon fill="#39B54A" points="129.47,1107.633 154.269,1121.951 179.068,1107.633 154.269,1093.315 	"/>
	<polygon fill="#39B54A" points="128.781,1108.826 128.781,1137.461 153.58,1151.779 153.58,1123.144 	"/>
	<polygon fill="#39B54A" points="154.958,1123.144 154.958,1151.779 179.757,1137.461 179.757,1108.826 	"/>
	<polygon fill="#39B54A" points="181.823,1107.633 206.622,1121.951 231.421,1107.633 206.622,1093.315 	"/>
	<polygon fill="#39B54A" points="181.135,1108.826 181.135,1137.461 205.934,1151.779 205.934,1123.144 	"/>
	<polygon fill="#39B54A" points="207.311,1123.144 207.311,1151.779 232.11,1137.461 232.11,1108.826 	"/>
	<polygon fill="#39B54A" points="234.177,1107.633 258.976,1121.951 283.775,1107.633 258.976,1093.315 	"/>
	<polygon fill="#39B54A" points="233.488,1108.826 233.488,1137.461 258.287,1151.779 258.287,1123.144 	"/>
	<polygon fill="#39B54A" points="259.665,1123.144 259.665,1151.779 284.464,1137.461 284.464,1108.826 	"/>
	<polygon fill="#39B54A" points="286.53,1107.633 311.329,1121.951 336.128,1107.633 311.329,1093.315 	"/>
	<polygon fill="#39B54A" points="285.841,1108.826 285.841,1137.461 310.64,1151.779 310.64,1123.144 	"/>
	<polygon fill="#39B54A" points="312.018,1123.144 312.018,1151.779 336.817,1137.461 336.817,1108.826 	"/>
	<polygon fill="#39B54A" points="338.883,1107.633 363.682,1121.951 388.481,1107.633 363.682,1093.315 	"/>
	<polygon fill="#39B54A" points="338.195,1108.826 338.195,1137.461 362.993,1151.779 362.993,1123.144 	"/>
	<polygon fill="#39B54A" points="364.371,1123.144 364.371,1151.779 389.17,1137.461 389.17,1108.826 	"/>
	<polygon fill="#39B54A" points="391.237,1107.633 416.036,1121.951 440.835,1107.633 416.036,1093.315 	"/>
	<polygon fill="#39B54A" points="390.548,1108.826 390.548,1137.461 415.347,1151.779 415.347,1123.144 	"/>
	<polygon fill="#39B54A" points="416.725,1123.144 416.725,1151.779 441.523,1137.461 441.523,1108.826 	"/>
	<polygon fill="#39B54A" points="443.59,1107.633 468.389,1121.951 493.188,1107.633 468.389,1093.315 	"/>
	<polygon fill="#39B54A" points="442.901,1108.826 442.901,1137.461 467.7,1151.779 467.7,1123.144 	"/>
	<polygon fill="#39B54A" points="469.078,1123.144 469.078,1151.779 493.877,1137.461 493.877,1108.826 	"/>
	<polygon fill="#39B54A" points="495.943,1107.633 520.742,1121.951 545.541,1107.633 520.742,1093.315 	"/>
	<polygon fill="#39B54A" points="495.255,1108.826 495.255,1137.461 520.054,1151.779 520.054,1123.144 	"/>
	<polygon fill="#39B54A" points="521.431,1123.144 521.431,1151.779 546.23,1137.461 546.23,1108.826 	"/>
	<polygon fill="#39B54A" points="548.297,1107.633 573.096,1121.951 597.895,1107.633 573.096,1093.315 	"/>
	<polygon fill="#39B54A" points="547.608,1108.826 547.608,1137.461 572.407,1151.779 572.407,1123.144 	"/>
	<polygon fill="#39B54A" points="573.785,1123.144 573.785,1151.779 598.583,1137.461 598.583,1108.826 	"/>
	<polygon fill="#39B54A" points="600.65,1107.633 625.449,1121.951 650.248,1107.633 625.449,1093.315 	"/>
	<polygon fill="#39B54A" points="599.961,1108.826 599.961,1137.461 624.76,1151.779 624.76,1123.144 	"/>
	<polygon fill="#39B54A" points="626.138,1123.144 626.138,1151.779 650.937,1137.461 650.937,1108.826 	"/>
	<polygon fill="#39B54A" points="653.003,1107.633 677.802,1121.951 702.601,1107.633 677.802,1093.315 	"/>
	<polygon fill="#39B54A" points="652.315,1108.826 652.315,1137.461 677.113,1151.779 677.113,1123.144 	"/>
	<polygon fill="#39B54A" points="678.491,1123.144 678.491,1151.779 703.29,1137.461 703.29,1108.826 	"/>
	<polygon fill="#39B54A" points="705.357,1107.633 730.156,1121.951 754.955,1107.633 730.156,1093.315 	"/>
	<polygon fill="#39B54A" points="704.668,1108.826 704.668,1137.461 729.467,1151.779 729.467,1123.144 	"/>
	<polygon fill="#39B54A" points="730.844,1123.144 730.844,1151.779 755.643,1137.461 755.643,1108.826 	"/>
	<polygon fill="#39B54A" points="757.71,1107.633 782.509,1121.951 807.308,1107.633 782.509,1093.315 	"/>
	<polygon fill="#39B54A" points="757.021,1108.826 757.021,1137.461 781.82,1151.779 781.82,1123.144 	"/>
	<polygon fill="#39B54A" points="783.198,1123.144 783.198,1151.779 807.997,1137.461 807.997,1108.826 	"/>
	<polygon fill="#39B54A" points="810.063,1107.633 834.862,1121.951 859.661,1107.633 834.862,1093.315 	"/>
	<polygon fill="#39B54A" points="809.374,1108.826 809.374,1137.461 834.173,1151.779 834.173,1123.144 	"/>
	<polygon fill="#39B54A" points="835.551,1123.144 835.551,1151.779 860.35,1137.461 860.35,1108.826 	"/>
	<polygon fill="#39B54A" points="861.728,1108.826 861.728,1137.461 886.527,1151.779 886.527,1123.144 	"/>
	<polygon fill="#39B54A" points="103.294,1152.972 128.092,1167.29 152.891,1152.972 128.092,1138.655 	"/>
	<polygon fill="#39B54A" points="102.605,1154.165 102.605,1182.801 127.404,1197.118 127.404,1168.483 	"/>
	<polygon fill="#39B54A" points="128.781,1168.483 128.781,1197.118 153.58,1182.801 153.58,1154.165 	"/>
	<polygon fill="#39B54A" points="155.647,1152.972 180.446,1167.29 205.245,1152.972 180.446,1138.655 	"/>
	<polygon fill="#39B54A" points="154.958,1154.165 154.958,1182.801 179.757,1197.118 179.757,1168.483 	"/>
	<polygon fill="#39B54A" points="181.135,1168.483 181.135,1197.118 205.934,1182.801 205.934,1154.165 	"/>
	<polygon fill="#39B54A" points="208,1152.972 232.799,1167.29 257.598,1152.972 232.799,1138.655 	"/>
	<polygon fill="#39B54A" points="207.311,1154.165 207.311,1182.801 232.11,1197.118 232.11,1168.483 	"/>
	<polygon fill="#39B54A" points="233.488,1168.483 233.488,1197.118 258.287,1182.801 258.287,1154.165 	"/>
	<polygon fill="#39B54A" points="260.353,1152.972 285.152,1167.29 309.951,1152.972 285.152,1138.655 	"/>
	<polygon fill="#39B54A" points="259.665,1154.165 259.665,1182.801 284.464,1197.118 284.464,1168.483 	"/>
	<polygon fill="#39B54A" points="285.841,1168.483 285.841,1197.118 310.64,1182.801 310.64,1154.165 	"/>
	<polygon fill="#39B54A" points="312.707,1152.972 337.506,1167.29 362.305,1152.972 337.506,1138.655 	"/>
	<polygon fill="#39B54A" points="312.018,1154.165 312.018,1182.801 336.817,1197.118 336.817,1168.483 	"/>
	<polygon fill="#39B54A" points="338.195,1168.483 338.195,1197.118 362.993,1182.801 362.993,1154.165 	"/>
	<polygon fill="#39B54A" points="365.06,1152.972 389.859,1167.29 414.658,1152.972 389.859,1138.655 	"/>
	<polygon fill="#39B54A" points="364.371,1154.165 364.371,1182.801 389.17,1197.118 389.17,1168.483 	"/>
	<polygon fill="#39B54A" points="390.548,1168.483 390.548,1197.118 415.347,1182.801 415.347,1154.165 	"/>
	<polygon fill="#39B54A" points="417.413,1152.972 442.212,1167.29 467.011,1152.972 442.212,1138.655 	"/>
	<polygon fill="#39B54A" points="416.725,1154.165 416.725,1182.801 441.523,1197.118 441.523,1168.483 	"/>
	<polygon fill="#39B54A" points="442.901,1168.483 442.901,1197.118 467.7,1182.801 467.7,1154.165 	"/>
	<polygon fill="#39B54A" points="469.767,1152.972 494.566,1167.29 519.365,1152.972 494.566,1138.655 	"/>
	<polygon fill="#39B54A" points="469.078,1154.165 469.078,1182.801 493.877,1197.118 493.877,1168.483 	"/>
	<polygon fill="#39B54A" points="495.255,1168.483 495.255,1197.118 520.054,1182.801 520.054,1154.165 	"/>
	<polygon fill="#39B54A" points="522.12,1152.972 546.919,1167.29 571.718,1152.972 546.919,1138.655 	"/>
	<polygon fill="#39B54A" points="521.431,1154.165 521.431,1182.801 546.23,1197.118 546.23,1168.483 	"/>
	<polygon fill="#39B54A" points="547.608,1168.483 547.608,1197.118 572.407,1182.801 572.407,1154.165 	"/>
	<polygon fill="#39B54A" points="574.473,1152.972 599.272,1167.29 624.071,1152.972 599.272,1138.655 	"/>
	<polygon fill="#39B54A" points="573.785,1154.165 573.785,1182.801 598.583,1197.118 598.583,1168.483 	"/>
	<polygon fill="#39B54A" points="599.961,1168.483 599.961,1197.118 624.76,1182.801 624.76,1154.165 	"/>
	<polygon fill="#39B54A" points="626.827,1152.972 651.626,1167.29 676.425,1152.972 651.626,1138.655 	"/>
	<polygon fill="#39B54A" points="626.138,1154.165 626.138,1182.801 650.937,1197.118 650.937,1168.483 	"/>
	<polygon fill="#39B54A" points="652.315,1168.483 652.315,1197.118 677.113,1182.801 677.113,1154.165 	"/>
	<polygon fill="#39B54A" points="679.18,1152.972 703.979,1167.29 728.778,1152.972 703.979,1138.655 	"/>
	<polygon fill="#39B54A" points="678.491,1154.165 678.491,1182.801 703.29,1197.118 703.29,1168.483 	"/>
	<polygon fill="#39B54A" points="704.668,1168.483 704.668,1197.118 729.467,1182.801 729.467,1154.165 	"/>
	<polygon fill="#39B54A" points="731.533,1152.972 756.332,1167.29 781.131,1152.972 756.332,1138.655 	"/>
	<polygon fill="#39B54A" points="730.844,1154.165 730.844,1182.801 755.643,1197.118 755.643,1168.483 	"/>
	<polygon fill="#39B54A" points="757.021,1168.483 757.021,1197.118 781.82,1182.801 781.82,1154.165 	"/>
	<polygon fill="#39B54A" points="783.887,1152.972 808.686,1167.29 833.485,1152.972 808.686,1138.655 	"/>
	<polygon fill="#39B54A" points="783.198,1154.165 783.198,1182.801 807.997,1197.118 807.997,1168.483 	"/>
	<polygon fill="#39B54A" points="809.374,1168.483 809.374,1197.118 834.173,1182.801 834.173,1154.165 	"/>
	<polygon fill="#39B54A" points="836.24,1152.972 861.039,1167.29 885.838,1152.972 861.039,1138.655 	"/>
	<polygon fill="#39B54A" points="835.551,1154.165 835.551,1182.801 860.35,1197.118 860.35,1168.483 	"/>
	<polygon fill="#39B54A" points="861.728,1168.483 861.728,1197.118 886.527,1182.801 886.527,1154.165 	"/>
	<polygon fill="#39B54A" points="77.117,1198.312 101.916,1212.629 126.715,1198.312 101.916,1183.994 	"/>
	<polygon fill="#39B54A" points="76.428,1199.505 76.428,1228.14 101.227,1242.458 101.227,1213.822 	"/>
	<polygon fill="#39B54A" points="102.605,1213.822 102.605,1242.458 127.404,1228.14 127.404,1199.505 	"/>
	<polygon fill="#39B54A" points="129.47,1198.312 154.269,1212.629 179.068,1198.312 154.269,1183.994 	"/>
	<polygon fill="#39B54A" points="128.781,1199.505 128.781,1228.14 153.58,1242.458 153.58,1213.822 	"/>
	<polygon fill="#39B54A" points="154.958,1213.822 154.958,1242.458 179.757,1228.14 179.757,1199.505 	"/>
	<polygon fill="#39B54A" points="181.823,1198.312 206.622,1212.629 231.421,1198.312 206.622,1183.994 	"/>
	<polygon fill="#39B54A" points="181.135,1199.505 181.135,1228.14 205.934,1242.458 205.934,1213.822 	"/>
	<polygon fill="#39B54A" points="207.311,1213.822 207.311,1242.458 232.11,1228.14 232.11,1199.505 	"/>
	<polygon fill="#39B54A" points="234.177,1198.312 258.976,1212.629 283.775,1198.312 258.976,1183.994 	"/>
	<polygon fill="#39B54A" points="233.488,1199.505 233.488,1228.14 258.287,1242.458 258.287,1213.822 	"/>
	<polygon fill="#39B54A" points="259.665,1213.822 259.665,1242.458 284.464,1228.14 284.464,1199.505 	"/>
	<polygon fill="#39B54A" points="286.53,1198.312 311.329,1212.629 336.128,1198.312 311.329,1183.994 	"/>
	<polygon fill="#39B54A" points="285.841,1199.505 285.841,1228.14 310.64,1242.458 310.64,1213.822 	"/>
	<polygon fill="#39B54A" points="312.018,1213.822 312.018,1242.458 336.817,1228.14 336.817,1199.505 	"/>
	<polygon fill="#39B54A" points="338.883,1198.312 363.682,1212.629 388.481,1198.312 363.682,1183.994 	"/>
	<polygon fill="#39B54A" points="338.195,1199.505 338.195,1228.14 362.993,1242.458 362.993,1213.822 	"/>
	<polygon fill="#39B54A" points="364.371,1213.822 364.371,1242.458 389.17,1228.14 389.17,1199.505 	"/>
	<polygon fill="#39B54A" points="391.237,1198.312 416.036,1212.629 440.835,1198.312 416.036,1183.994 	"/>
	<polygon fill="#39B54A" points="390.548,1199.505 390.548,1228.14 415.347,1242.458 415.347,1213.822 	"/>
	<polygon fill="#39B54A" points="416.725,1213.822 416.725,1242.458 441.523,1228.14 441.523,1199.505 	"/>
	<polygon fill="#39B54A" points="443.59,1198.312 468.389,1212.629 493.188,1198.312 468.389,1183.994 	"/>
	<polygon fill="#39B54A" points="442.901,1199.505 442.901,1228.14 467.7,1242.458 467.7,1213.822 	"/>
	<polygon fill="#39B54A" points="469.078,1213.822 469.078,1242.458 493.877,1228.14 493.877,1199.505 	"/>
	<polygon fill="#39B54A" points="495.943,1198.312 520.742,1212.629 545.541,1198.312 520.742,1183.994 	"/>
	<polygon fill="#39B54A" points="495.255,1199.505 495.255,1228.14 520.054,1242.458 520.054,1213.822 	"/>
	<polygon fill="#39B54A" points="521.431,1213.822 521.431,1242.458 546.23,1228.14 546.23,1199.505 	"/>
	<polygon fill="#39B54A" points="548.297,1198.312 573.096,1212.629 597.895,1198.312 573.096,1183.994 	"/>
	<polygon fill="#39B54A" points="547.608,1199.505 547.608,1228.14 572.407,1242.458 572.407,1213.822 	"/>
	<polygon fill="#39B54A" points="573.785,1213.822 573.785,1242.458 598.583,1228.14 598.583,1199.505 	"/>
	<polygon fill="#39B54A" points="600.65,1198.312 625.449,1212.629 650.248,1198.312 625.449,1183.994 	"/>
	<polygon fill="#39B54A" points="599.961,1199.505 599.961,1228.14 624.76,1242.458 624.76,1213.822 	"/>
	<polygon fill="#39B54A" points="626.138,1213.822 626.138,1242.458 650.937,1228.14 650.937,1199.505 	"/>
	<polygon fill="#39B54A" points="653.003,1198.312 677.802,1212.629 702.601,1198.312 677.802,1183.994 	"/>
	<polygon fill="#39B54A" points="652.315,1199.505 652.315,1228.14 677.113,1242.458 677.113,1213.822 	"/>
	<polygon fill="#39B54A" points="678.491,1213.822 678.491,1242.458 703.29,1228.14 703.29,1199.505 	"/>
	<polygon fill="#39B54A" points="705.357,1198.312 730.156,1212.629 754.955,1198.312 730.156,1183.994 	"/>
	<polygon fill="#39B54A" points="704.668,1199.505 704.668,1228.14 729.467,1242.458 729.467,1213.822 	"/>
	<polygon fill="#39B54A" points="730.844,1213.822 730.844,1242.458 755.643,1228.14 755.643,1199.505 	"/>
	<polygon fill="#39B54A" points="757.71,1198.312 782.509,1212.629 807.308,1198.312 782.509,1183.994 	"/>
	<polygon fill="#39B54A" points="757.021,1199.505 757.021,1228.14 781.82,1242.458 781.82,1213.822 	"/>
	<polygon fill="#39B54A" points="783.198,1213.822 783.198,1242.458 807.997,1228.14 807.997,1199.505 	"/>
	<polygon fill="#39B54A" points="810.063,1198.312 834.862,1212.629 859.661,1198.312 834.862,1183.994 	"/>
	<polygon fill="#39B54A" points="809.374,1199.505 809.374,1228.14 834.173,1242.458 834.173,1213.822 	"/>
	<polygon fill="#39B54A" points="835.551,1213.822 835.551,1242.458 860.35,1228.14 860.35,1199.505 	"/>
	<polygon fill="#39B54A" points="862.417,1198.312 887.216,1212.629 912.015,1198.312 887.216,1183.994 	"/>
	<polygon fill="#39B54A" points="861.728,1199.505 861.728,1228.14 886.527,1242.458 886.527,1213.822 	"/>
	<polygon fill="#39B54A" points="887.904,1213.822 887.904,1242.458 912.703,1228.14 912.703,1199.505 	"/>
	<polygon fill="#39B54A" points="50.94,1243.651 75.739,1257.968 100.538,1243.651 75.739,1229.333 	"/>
	<polygon fill="#39B54A" points="50.251,1244.844 50.251,1273.479 75.05,1287.797 75.05,1259.162 	"/>
	<polygon fill="#39B54A" points="76.428,1259.162 76.428,1287.797 101.227,1273.479 101.227,1244.844 	"/>
	<polygon fill="#39B54A" points="103.294,1243.651 128.092,1257.968 152.891,1243.651 128.092,1229.333 	"/>
	<polygon fill="#39B54A" points="102.605,1244.844 102.605,1273.479 127.404,1287.797 127.404,1259.162 	"/>
	<polygon fill="#39B54A" points="128.781,1259.162 128.781,1287.797 153.58,1273.479 153.58,1244.844 	"/>
	<polygon fill="#39B54A" points="155.647,1243.651 180.446,1257.968 205.245,1243.651 180.446,1229.333 	"/>
	<polygon fill="#39B54A" points="154.958,1244.844 154.958,1273.479 179.757,1287.797 179.757,1259.162 	"/>
	<polygon fill="#39B54A" points="181.135,1259.162 181.135,1287.797 205.934,1273.479 205.934,1244.844 	"/>
	<polygon fill="#39B54A" points="208,1243.651 232.799,1257.968 257.598,1243.651 232.799,1229.333 	"/>
	<polygon fill="#39B54A" points="207.311,1244.844 207.311,1273.479 232.11,1287.797 232.11,1259.162 	"/>
	<polygon fill="#39B54A" points="233.488,1259.162 233.488,1287.797 258.287,1273.479 258.287,1244.844 	"/>
	<polygon fill="#39B54A" points="260.353,1243.651 285.152,1257.968 309.951,1243.651 285.152,1229.333 	"/>
	<polygon fill="#39B54A" points="259.665,1244.844 259.665,1273.479 284.464,1287.797 284.464,1259.162 	"/>
	<polygon fill="#39B54A" points="285.841,1259.162 285.841,1287.797 310.64,1273.479 310.64,1244.844 	"/>
	<polygon fill="#39B54A" points="312.707,1243.651 337.506,1257.968 362.305,1243.651 337.506,1229.333 	"/>
	<polygon fill="#39B54A" points="312.018,1244.844 312.018,1273.479 336.817,1287.797 336.817,1259.162 	"/>
	<polygon fill="#39B54A" points="338.195,1259.162 338.195,1287.797 362.993,1273.479 362.993,1244.844 	"/>
	<polygon fill="#39B54A" points="365.06,1243.651 389.859,1257.968 414.658,1243.651 389.859,1229.333 	"/>
	<polygon fill="#39B54A" points="364.371,1244.844 364.371,1273.479 389.17,1287.797 389.17,1259.162 	"/>
	<polygon fill="#39B54A" points="390.548,1259.162 390.548,1287.797 415.347,1273.479 415.347,1244.844 	"/>
	<polygon fill="#39B54A" points="417.413,1243.651 442.212,1257.968 467.011,1243.651 442.212,1229.333 	"/>
	<polygon fill="#39B54A" points="416.725,1244.844 416.725,1273.479 441.523,1287.797 441.523,1259.162 	"/>
	<polygon fill="#39B54A" points="442.901,1259.162 442.901,1287.797 467.7,1273.479 467.7,1244.844 	"/>
	<polygon fill="#39B54A" points="469.767,1243.651 494.566,1257.968 519.365,1243.651 494.566,1229.333 	"/>
	<polygon fill="#39B54A" points="469.078,1244.844 469.078,1273.479 493.877,1287.797 493.877,1259.162 	"/>
	<polygon fill="#39B54A" points="495.255,1259.162 495.255,1287.797 520.054,1273.479 520.054,1244.844 	"/>
	<polygon fill="#39B54A" points="522.12,1243.651 546.919,1257.968 571.718,1243.651 546.919,1229.333 	"/>
	<polygon fill="#39B54A" points="521.431,1244.844 521.431,1273.479 546.23,1287.797 546.23,1259.162 	"/>
	<polygon fill="#39B54A" points="547.608,1259.162 547.608,1287.797 572.407,1273.479 572.407,1244.844 	"/>
	<polygon fill="#39B54A" points="574.473,1243.651 599.272,1257.968 624.071,1243.651 599.272,1229.333 	"/>
	<polygon fill="#39B54A" points="573.785,1244.844 573.785,1273.479 598.583,1287.797 598.583,1259.162 	"/>
	<polygon fill="#39B54A" points="599.961,1259.162 599.961,1287.797 624.76,1273.479 624.76,1244.844 	"/>
	<polygon fill="#39B54A" points="626.827,1243.651 651.626,1257.968 676.425,1243.651 651.626,1229.333 	"/>
	<polygon fill="#39B54A" points="626.138,1244.844 626.138,1273.479 650.937,1287.797 650.937,1259.162 	"/>
	<polygon fill="#39B54A" points="652.315,1259.162 652.315,1287.797 677.113,1273.479 677.113,1244.844 	"/>
	<polygon fill="#39B54A" points="679.18,1243.651 703.979,1257.968 728.778,1243.651 703.979,1229.333 	"/>
	<polygon fill="#39B54A" points="678.491,1244.844 678.491,1273.479 703.29,1287.797 703.29,1259.162 	"/>
	<polygon fill="#39B54A" points="704.668,1259.162 704.668,1287.797 729.467,1273.479 729.467,1244.844 	"/>
	<polygon fill="#39B54A" points="731.533,1243.651 756.332,1257.968 781.131,1243.651 756.332,1229.333 	"/>
	<polygon fill="#39B54A" points="730.844,1244.844 730.844,1273.479 755.643,1287.797 755.643,1259.162 	"/>
	<polygon fill="#39B54A" points="757.021,1259.162 757.021,1287.797 781.82,1273.479 781.82,1244.844 	"/>
	<polygon fill="#39B54A" points="783.887,1243.651 808.686,1257.968 833.485,1243.651 808.686,1229.333 	"/>
	<polygon fill="#39B54A" points="783.198,1244.844 783.198,1273.479 807.997,1287.797 807.997,1259.162 	"/>
	<polygon fill="#39B54A" points="809.374,1259.162 809.374,1287.797 834.173,1273.479 834.173,1244.844 	"/>
	<polygon fill="#39B54A" points="836.24,1243.651 861.039,1257.968 885.838,1243.651 861.039,1229.333 	"/>
	<polygon fill="#39B54A" points="835.551,1244.844 835.551,1273.479 860.35,1287.797 860.35,1259.162 	"/>
	<polygon fill="#39B54A" points="861.728,1259.162 861.728,1287.797 886.527,1273.479 886.527,1244.844 	"/>
	<polygon fill="#39B54A" points="888.593,1243.651 913.392,1257.968 938.191,1243.651 913.392,1229.333 	"/>
	<polygon fill="#39B54A" points="887.904,1244.844 887.904,1273.479 912.703,1287.797 912.703,1259.162 	"/>
	<polygon fill="#39B54A" points="914.081,1259.162 914.081,1287.797 938.88,1273.479 938.88,1244.844 	"/>
	<polygon fill="#39B54A" points="50.251,1304.501 50.251,1333.136 75.05,1318.819 75.05,1290.183 	"/>
	<polygon fill="#39B54A" points="77.117,1288.99 101.916,1303.308 126.715,1288.99 101.916,1274.672 	"/>
	<polygon fill="#39B54A" points="76.428,1290.183 76.428,1318.819 101.227,1333.136 101.227,1304.501 	"/>
	<polygon fill="#39B54A" points="102.605,1304.501 102.605,1333.136 127.404,1318.819 127.404,1290.183 	"/>
	<polygon fill="#39B54A" points="129.47,1288.99 154.269,1303.308 179.068,1288.99 154.269,1274.672 	"/>
	<polygon fill="#39B54A" points="128.781,1290.183 128.781,1318.819 153.58,1333.136 153.58,1304.501 	"/>
	<polygon fill="#39B54A" points="154.958,1304.501 154.958,1333.136 179.757,1318.819 179.757,1290.183 	"/>
	<polygon fill="#39B54A" points="181.823,1288.99 206.622,1303.308 231.421,1288.99 206.622,1274.672 	"/>
	<polygon fill="#39B54A" points="181.135,1290.183 181.135,1318.819 205.934,1333.136 205.934,1304.501 	"/>
	<polygon fill="#39B54A" points="207.311,1304.501 207.311,1333.136 232.11,1318.819 232.11,1290.183 	"/>
	<polygon fill="#39B54A" points="234.177,1288.99 258.976,1303.308 283.775,1288.99 258.976,1274.672 	"/>
	<polygon fill="#39B54A" points="233.488,1290.183 233.488,1318.819 258.287,1333.136 258.287,1304.501 	"/>
	<polygon fill="#39B54A" points="259.665,1304.501 259.665,1333.136 284.464,1318.819 284.464,1290.183 	"/>
	<polygon fill="#39B54A" points="286.53,1288.99 311.329,1303.308 336.128,1288.99 311.329,1274.672 	"/>
	<polygon fill="#39B54A" points="285.841,1290.183 285.841,1318.819 310.64,1333.136 310.64,1304.501 	"/>
	<polygon fill="#39B54A" points="312.018,1304.501 312.018,1333.136 336.817,1318.819 336.817,1290.183 	"/>
	<polygon fill="#39B54A" points="338.883,1288.99 363.682,1303.308 388.481,1288.99 363.682,1274.672 	"/>
	<polygon fill="#39B54A" points="338.195,1290.183 338.195,1318.819 362.993,1333.136 362.993,1304.501 	"/>
	<polygon fill="#39B54A" points="364.371,1304.501 364.371,1333.136 389.17,1318.819 389.17,1290.183 	"/>
	<polygon fill="#39B54A" points="391.237,1288.99 416.036,1303.308 440.835,1288.99 416.036,1274.672 	"/>
	<polygon fill="#39B54A" points="390.548,1290.183 390.548,1318.819 415.347,1333.136 415.347,1304.501 	"/>
	<polygon fill="#39B54A" points="416.725,1304.501 416.725,1333.136 441.523,1318.819 441.523,1290.183 	"/>
	<polygon fill="#39B54A" points="443.59,1288.99 468.389,1303.308 493.188,1288.99 468.389,1274.672 	"/>
	<polygon fill="#39B54A" points="442.901,1290.183 442.901,1318.819 467.7,1333.136 467.7,1304.501 	"/>
	<polygon fill="#39B54A" points="469.078,1304.501 469.078,1333.136 493.877,1318.819 493.877,1290.183 	"/>
	<polygon fill="#39B54A" points="495.943,1288.99 520.742,1303.308 545.541,1288.99 520.742,1274.672 	"/>
	<polygon fill="#39B54A" points="495.255,1290.183 495.255,1318.819 520.054,1333.136 520.054,1304.501 	"/>
	<polygon fill="#39B54A" points="521.431,1304.501 521.431,1333.136 546.23,1318.819 546.23,1290.183 	"/>
	<polygon fill="#39B54A" points="548.297,1288.99 573.096,1303.308 597.895,1288.99 573.096,1274.672 	"/>
	<polygon fill="#39B54A" points="547.608,1290.183 547.608,1318.819 572.407,1333.136 572.407,1304.501 	"/>
	<polygon fill="#39B54A" points="573.785,1304.501 573.785,1333.136 598.583,1318.819 598.583,1290.183 	"/>
	<polygon fill="#39B54A" points="600.65,1288.99 625.449,1303.308 650.248,1288.99 625.449,1274.672 	"/>
	<polygon fill="#39B54A" points="599.961,1290.183 599.961,1318.819 624.76,1333.136 624.76,1304.501 	"/>
	<polygon fill="#39B54A" points="626.138,1304.501 626.138,1333.136 650.937,1318.819 650.937,1290.183 	"/>
	<polygon fill="#39B54A" points="653.003,1288.99 677.802,1303.308 702.601,1288.99 677.802,1274.672 	"/>
	<polygon fill="#39B54A" points="652.315,1290.183 652.315,1318.819 677.113,1333.136 677.113,1304.501 	"/>
	<polygon fill="#39B54A" points="678.491,1304.501 678.491,1333.136 703.29,1318.819 703.29,1290.183 	"/>
	<polygon fill="#39B54A" points="705.357,1288.99 730.156,1303.308 754.955,1288.99 730.156,1274.672 	"/>
	<polygon fill="#39B54A" points="704.668,1290.183 704.668,1318.819 729.467,1333.136 729.467,1304.501 	"/>
	<polygon fill="#39B54A" points="730.844,1304.501 730.844,1333.136 755.643,1318.819 755.643,1290.183 	"/>
	<polygon fill="#39B54A" points="757.71,1288.99 782.509,1303.308 807.308,1288.99 782.509,1274.672 	"/>
	<polygon fill="#39B54A" points="757.021,1290.183 757.021,1318.819 781.82,1333.136 781.82,1304.501 	"/>
	<polygon fill="#39B54A" points="783.198,1304.501 783.198,1333.136 807.997,1318.819 807.997,1290.183 	"/>
	<polygon fill="#39B54A" points="810.063,1288.99 834.862,1303.308 859.661,1288.99 834.862,1274.672 	"/>
	<polygon fill="#39B54A" points="809.374,1290.183 809.374,1318.819 834.173,1333.136 834.173,1304.501 	"/>
	<polygon fill="#39B54A" points="835.551,1304.501 835.551,1333.136 860.35,1318.819 860.35,1290.183 	"/>
	<polygon fill="#39B54A" points="862.417,1288.99 887.216,1303.308 912.015,1288.99 887.216,1274.672 	"/>
	<polygon fill="#39B54A" points="861.728,1290.183 861.728,1318.819 886.527,1333.136 886.527,1304.501 	"/>
	<polygon fill="#39B54A" points="887.904,1304.501 887.904,1333.136 912.703,1318.819 912.703,1290.183 	"/>
	<polygon fill="#39B54A" points="914.081,1290.183 914.081,1318.819 938.88,1333.136 938.88,1304.501 	"/>
	<polygon fill="#39B54A" points="24.075,1349.84 24.075,1378.475 48.874,1364.158 48.874,1335.522 	"/>
	<polygon fill="#39B54A" points="50.94,1334.329 75.739,1348.647 100.538,1334.329 75.739,1320.012 	"/>
	<polygon fill="#39B54A" points="50.251,1335.522 50.251,1364.158 75.05,1378.475 75.05,1349.84 	"/>
	<polygon fill="#39B54A" points="76.428,1349.84 76.428,1378.475 101.227,1364.158 101.227,1335.522 	"/>
	<polygon fill="#39B54A" points="103.294,1334.329 128.092,1348.647 152.891,1334.329 128.092,1320.012 	"/>
	<polygon fill="#39B54A" points="102.605,1335.522 102.605,1364.158 127.404,1378.475 127.404,1349.84 	"/>
	<polygon fill="#39B54A" points="128.781,1349.84 128.781,1378.475 153.58,1364.158 153.58,1335.522 	"/>
	<polygon fill="#39B54A" points="155.647,1334.329 180.446,1348.647 205.245,1334.329 180.446,1320.012 	"/>
	<polygon fill="#39B54A" points="154.958,1335.522 154.958,1364.158 179.757,1378.475 179.757,1349.84 	"/>
	<polygon fill="#39B54A" points="181.135,1349.84 181.135,1378.475 205.934,1364.158 205.934,1335.522 	"/>
	<polygon fill="#39B54A" points="208,1334.329 232.799,1348.647 257.598,1334.329 232.799,1320.012 	"/>
	<polygon fill="#39B54A" points="207.311,1335.522 207.311,1364.158 232.11,1378.475 232.11,1349.84 	"/>
	<polygon fill="#39B54A" points="233.488,1349.84 233.488,1378.475 258.287,1364.158 258.287,1335.522 	"/>
	<polygon fill="#39B54A" points="260.353,1334.329 285.152,1348.647 309.951,1334.329 285.152,1320.012 	"/>
	<polygon fill="#39B54A" points="259.665,1335.522 259.665,1364.158 284.464,1378.475 284.464,1349.84 	"/>
	<polygon fill="#39B54A" points="285.841,1349.84 285.841,1378.475 310.64,1364.158 310.64,1335.522 	"/>
	<polygon fill="#39B54A" points="312.707,1334.329 337.506,1348.647 362.305,1334.329 337.506,1320.012 	"/>
	<polygon fill="#39B54A" points="312.018,1335.522 312.018,1364.158 336.817,1378.475 336.817,1349.84 	"/>
	<polygon fill="#39B54A" points="338.195,1349.84 338.195,1378.475 362.993,1364.158 362.993,1335.522 	"/>
	<polygon fill="#39B54A" points="365.06,1334.329 389.859,1348.647 414.658,1334.329 389.859,1320.012 	"/>
	<polygon fill="#39B54A" points="364.371,1335.522 364.371,1364.158 389.17,1378.475 389.17,1349.84 	"/>
	<polygon fill="#39B54A" points="390.548,1349.84 390.548,1378.475 415.347,1364.158 415.347,1335.522 	"/>
	<polygon fill="#39B54A" points="417.413,1334.329 442.212,1348.647 467.011,1334.329 442.212,1320.012 	"/>
	<polygon fill="#39B54A" points="416.725,1335.522 416.725,1364.158 441.523,1378.475 441.523,1349.84 	"/>
	<polygon fill="#39B54A" points="442.901,1349.84 442.901,1378.475 467.7,1364.158 467.7,1335.522 	"/>
	<polygon fill="#39B54A" points="469.767,1334.329 494.566,1348.647 519.365,1334.329 494.566,1320.012 	"/>
	<polygon fill="#39B54A" points="469.078,1335.522 469.078,1364.158 493.877,1378.475 493.877,1349.84 	"/>
	<polygon fill="#39B54A" points="495.255,1349.84 495.255,1378.475 520.054,1364.158 520.054,1335.522 	"/>
	<polygon fill="#39B54A" points="522.12,1334.329 546.919,1348.647 571.718,1334.329 546.919,1320.012 	"/>
	<polygon fill="#39B54A" points="521.431,1335.522 521.431,1364.158 546.23,1378.475 546.23,1349.84 	"/>
	<polygon fill="#39B54A" points="547.608,1349.84 547.608,1378.475 572.407,1364.158 572.407,1335.522 	"/>
	<polygon fill="#39B54A" points="574.473,1334.329 599.272,1348.647 624.071,1334.329 599.272,1320.012 	"/>
	<polygon fill="#39B54A" points="573.785,1335.522 573.785,1364.158 598.583,1378.475 598.583,1349.84 	"/>
	<polygon fill="#39B54A" points="599.961,1349.84 599.961,1378.475 624.76,1364.158 624.76,1335.522 	"/>
	<polygon fill="#39B54A" points="626.827,1334.329 651.626,1348.647 676.425,1334.329 651.626,1320.012 	"/>
	<polygon fill="#39B54A" points="626.138,1335.522 626.138,1364.158 650.937,1378.475 650.937,1349.84 	"/>
	<polygon fill="#39B54A" points="652.315,1349.84 652.315,1378.475 677.113,1364.158 677.113,1335.522 	"/>
	<polygon fill="#39B54A" points="679.18,1334.329 703.979,1348.647 728.778,1334.329 703.979,1320.012 	"/>
	<polygon fill="#39B54A" points="678.491,1335.522 678.491,1364.158 703.29,1378.475 703.29,1349.84 	"/>
	<polygon fill="#39B54A" points="704.668,1349.84 704.668,1378.475 729.467,1364.158 729.467,1335.522 	"/>
	<polygon fill="#39B54A" points="731.533,1334.329 756.332,1348.647 781.131,1334.329 756.332,1320.012 	"/>
	<polygon fill="#39B54A" points="730.844,1335.522 730.844,1364.158 755.643,1378.475 755.643,1349.84 	"/>
	<polygon fill="#39B54A" points="757.021,1349.84 757.021,1378.475 781.82,1364.158 781.82,1335.522 	"/>
	<polygon fill="#39B54A" points="783.887,1334.329 808.686,1348.647 833.485,1334.329 808.686,1320.012 	"/>
	<polygon fill="#39B54A" points="783.198,1335.522 783.198,1364.158 807.997,1378.475 807.997,1349.84 	"/>
	<polygon fill="#39B54A" points="809.374,1349.84 809.374,1378.475 834.173,1364.158 834.173,1335.522 	"/>
	<polygon fill="#39B54A" points="836.24,1334.329 861.039,1348.647 885.838,1334.329 861.039,1320.012 	"/>
	<polygon fill="#39B54A" points="835.551,1335.522 835.551,1364.158 860.35,1378.475 860.35,1349.84 	"/>
	<polygon fill="#39B54A" points="861.728,1349.84 861.728,1378.475 886.527,1364.158 886.527,1335.522 	"/>
	<polygon fill="#39B54A" points="888.593,1334.329 913.392,1348.647 938.191,1334.329 913.392,1320.012 	"/>
	<polygon fill="#39B54A" points="887.904,1335.522 887.904,1364.158 912.703,1378.475 912.703,1349.84 	"/>
	<polygon fill="#39B54A" points="914.081,1349.84 914.081,1378.475 938.88,1364.158 938.88,1335.522 	"/>
	<polygon fill="#39B54A" points="940.258,1335.522 940.258,1364.158 965.057,1378.475 965.057,1349.84 	"/>
	<polygon fill="#39B54A" points="24.764,1379.669 49.562,1393.986 74.361,1379.669 49.562,1365.351 	"/>
	<polygon fill="#39B54A" points="77.117,1379.669 101.916,1393.986 126.715,1379.669 101.916,1365.351 	"/>
	<polygon fill="#39B54A" points="129.47,1379.669 154.269,1393.986 179.068,1379.669 154.269,1365.351 	"/>
	<polygon fill="#39B54A" points="181.823,1379.669 206.622,1393.986 231.421,1379.669 206.622,1365.351 	"/>
	<polygon fill="#39B54A" points="234.177,1379.669 258.976,1393.986 283.775,1379.669 258.976,1365.351 	"/>
	<polygon fill="#39B54A" points="286.53,1379.669 311.329,1393.986 336.128,1379.669 311.329,1365.351 	"/>
	<polygon fill="#39B54A" points="338.883,1379.669 363.682,1393.986 388.481,1379.669 363.682,1365.351 	"/>
	<polygon fill="#39B54A" points="391.237,1379.669 416.036,1393.986 440.835,1379.669 416.036,1365.351 	"/>
	<polygon fill="#39B54A" points="443.59,1379.669 468.389,1393.986 493.188,1379.669 468.389,1365.351 	"/>
	<polygon fill="#39B54A" points="442.901,1380.862 442.901,1409.497 467.7,1423.815 467.7,1395.179 	"/>
	<polygon fill="#39B54A" points="469.078,1395.179 469.078,1423.815 493.877,1409.497 493.877,1380.862 	"/>
	<polygon fill="#39B54A" points="495.943,1379.669 520.742,1393.986 545.541,1379.669 520.742,1365.351 	"/>
	<polygon fill="#39B54A" points="495.255,1380.862 495.255,1409.497 520.054,1423.815 520.054,1395.179 	"/>
	<polygon fill="#39B54A" points="521.431,1395.179 521.431,1423.815 546.23,1409.497 546.23,1380.862 	"/>
	<polygon fill="#39B54A" points="548.297,1379.669 573.096,1393.986 597.895,1379.669 573.096,1365.351 	"/>
	<polygon fill="#39B54A" points="600.65,1379.669 625.449,1393.986 650.248,1379.669 625.449,1365.351 	"/>
	<polygon fill="#39B54A" points="653.003,1379.669 677.802,1393.986 702.601,1379.669 677.802,1365.351 	"/>
	<polygon fill="#39B54A" points="705.357,1379.669 730.156,1393.986 754.955,1379.669 730.156,1365.351 	"/>
	<polygon fill="#39B54A" points="757.71,1379.669 782.509,1393.986 807.308,1379.669 782.509,1365.351 	"/>
	<polygon fill="#39B54A" points="810.063,1379.669 834.862,1393.986 859.661,1379.669 834.862,1365.351 	"/>
	<polygon fill="#39B54A" points="862.417,1379.669 887.216,1393.986 912.015,1379.669 887.216,1365.351 	"/>
	<polygon fill="#39B54A" points="914.77,1379.669 939.569,1393.986 964.368,1379.669 939.569,1365.351 	"/>
	<polygon fill="#39B54A" points="442.901,1440.519 442.901,1469.154 467.7,1454.836 467.7,1426.201 	"/>
	<polygon fill="#39B54A" points="469.767,1425.008 494.566,1439.326 519.365,1425.008 494.566,1410.69 	"/>
	<polygon fill="#39B54A" points="469.078,1426.201 469.078,1454.836 493.877,1469.154 493.877,1440.519 	"/>
	<polygon fill="#39B54A" points="495.255,1440.519 495.255,1469.154 520.054,1454.836 520.054,1426.201 	"/>
	<polygon fill="#39B54A" points="521.431,1426.201 521.431,1454.836 546.23,1469.154 546.23,1440.519 	"/>
	<polygon fill="#39B54A" points="443.59,1470.347 468.389,1484.665 493.188,1470.347 468.389,1456.03 	"/>
	<polygon fill="#39B54A" points="442.901,1471.54 442.901,1500.176 467.7,1514.493 467.7,1485.858 	"/>
	<polygon fill="#39B54A" points="469.078,1485.858 469.078,1514.493 493.877,1500.176 493.877,1471.54 	"/>
	<polygon fill="#39B54A" points="495.943,1470.347 520.742,1484.665 545.541,1470.347 520.742,1456.03 	"/>
	<polygon fill="#39B54A" points="495.255,1471.54 495.255,1500.176 520.054,1514.493 520.054,1485.858 	"/>
	<polygon fill="#39B54A" points="521.431,1485.858 521.431,1514.493 546.23,1500.176 546.23,1471.54 	"/>
	<polygon fill="#39B54A" points="442.901,1531.197 442.901,1559.833 467.7,1545.515 467.7,1516.88 	"/>
	<polygon fill="#39B54A" points="469.767,1515.687 494.566,1530.004 519.365,1515.687 494.566,1501.369 	"/>
	<polygon fill="#39B54A" points="469.078,1516.88 469.078,1545.515 493.877,1559.833 493.877,1531.197 	"/>
	<polygon fill="#39B54A" points="495.255,1531.197 495.255,1559.833 520.054,1545.515 520.054,1516.88 	"/>
	<polygon fill="#39B54A" points="521.431,1516.88 521.431,1545.515 546.23,1559.833 546.23,1531.197 	"/>
	<polygon fill="#39B54A" points="443.59,1561.026 468.389,1575.344 493.188,1561.026 468.389,1546.708 	"/>
	<polygon fill="#39B54A" points="442.901,1562.219 442.901,1590.854 467.7,1605.172 467.7,1576.537 	"/>
	<polygon fill="#39B54A" points="469.078,1576.537 469.078,1605.172 493.877,1590.854 493.877,1562.219 	"/>
	<polygon fill="#39B54A" points="495.943,1561.026 520.742,1575.344 545.541,1561.026 520.742,1546.708 	"/>
	<polygon fill="#39B54A" points="495.255,1562.219 495.255,1590.854 520.054,1605.172 520.054,1576.537 	"/>
	<polygon fill="#39B54A" points="521.431,1576.537 521.431,1605.172 546.23,1590.854 546.23,1562.219 	"/>
	<polygon fill="#39B54A" points="469.767,1606.365 494.566,1620.683 519.365,1606.365 494.566,1592.047 	"/>
</g>
</svg>
